<svg class="main-svg" xmlns="http://www.w3.org/2000/svg" xmlns:xlink="http://www.w3.org/1999/xlink" width="900" height="500" style="" viewBox="0 0 900 500"><rect x="0" y="0" width="900" height="500" style="fill: rgb(255, 255, 255); fill-opacity: 1;"/><defs id="defs-5280bf"><g class="clips"><clipPath id="clip5280bfxyplot" class="plotclip"><rect width="713" height="360"/></clipPath><clipPath class="axesclip" id="clip5280bfx"><rect x="80" y="0" width="713" height="500"/></clipPath><clipPath class="axesclip" id="clip5280bfy"><rect x="0" y="60" width="900" height="360"/></clipPath><clipPath class="axesclip" id="clip5280bfxy"><rect x="80" y="60" width="713" height="360"/></clipPath></g><g class="gradients"><linearGradient x1="0" x2="0" y1="1" y2="0" id="g5280bf-cbcoloraxis"><stop offset="0%" stop-color="rgb(244, 164, 96)" stop-opacity="1"/><stop offset="50%" stop-color="rgb(139, 69, 19)" stop-opacity="1"/><stop offset="100%" stop-color="rgb(61, 43, 31)" stop-opacity="1"/></linearGradient></g></defs><g class="bglayer"><rect class="bg" x="80" y="60" width="713" height="360" style="fill: rgb(229, 236, 246); fill-opacity: 1; stroke-width: 0;"/></g><g class="layer-below"><g class="imagelayer"/><g class="shapelayer"/></g><g class="cartesianlayer"><g class="subplot xy"><g class="layer-subplot"><g class="shapelayer"/><g class="imagelayer"/></g><g class="gridlayer"><g class="x"><path class="xgrid crisp" transform="translate(247.61,0)" d="M0,60v360" style="stroke: rgb(255, 255, 255); stroke-opacity: 1; stroke-width: 1px;"/><path class="xgrid crisp" transform="translate(383.84,0)" d="M0,60v360" style="stroke: rgb(255, 255, 255); stroke-opacity: 1; stroke-width: 1px;"/><path class="xgrid crisp" transform="translate(520.0699999999999,0)" d="M0,60v360" style="stroke: rgb(255, 255, 255); stroke-opacity: 1; stroke-width: 1px;"/><path class="xgrid crisp" transform="translate(656.3,0)" d="M0,60v360" style="stroke: rgb(255, 255, 255); stroke-opacity: 1; stroke-width: 1px;"/></g><g class="y"><path class="ygrid crisp" transform="translate(0,341.71)" d="M80,0h713" style="stroke: rgb(255, 255, 255); stroke-opacity: 1; stroke-width: 1px;"/><path class="ygrid crisp" transform="translate(0,280.56)" d="M80,0h713" style="stroke: rgb(255, 255, 255); stroke-opacity: 1; stroke-width: 1px;"/><path class="ygrid crisp" transform="translate(0,219.41)" d="M80,0h713" style="stroke: rgb(255, 255, 255); stroke-opacity: 1; stroke-width: 1px;"/><path class="ygrid crisp" transform="translate(0,158.26)" d="M80,0h713" style="stroke: rgb(255, 255, 255); stroke-opacity: 1; stroke-width: 1px;"/><path class="ygrid crisp" transform="translate(0,97.11)" d="M80,0h713" style="stroke: rgb(255, 255, 255); stroke-opacity: 1; stroke-width: 1px;"/></g></g><g class="zerolinelayer"><path class="xzl zl crisp" transform="translate(111.38,0)" d="M0,60v360" style="stroke: rgb(255, 255, 255); stroke-opacity: 1; stroke-width: 2px;"/><path class="yzl zl crisp" transform="translate(0,402.86)" d="M80,0h713" style="stroke: rgb(255, 255, 255); stroke-opacity: 1; stroke-width: 2px;"/></g><path class="xlines-below"/><path class="ylines-below"/><g class="overlines-below"/><g class="xaxislayer-below"/><g class="yaxislayer-below"/><g class="overaxes-below"/><g class="plot" transform="translate(80, 60)" clip-path="url('#clip5280bfxyplot')"><g class="scatterlayer mlayer"><g class="trace scatter tracebc1900" style="stroke-miterlimit: 2; opacity: 1;"><g class="fills"/><g class="errorbars"/><g class="lines"/><g class="points"><path class="point" transform="translate(197.24,329.8)" d="M4.22,0A4.22,4.22 0 1,1 0,-4.22A4.22,4.22 0 0,1 4.22,0Z" style="opacity: 0.7; stroke-width: 1px; fill: rgb(228, 149, 84); fill-opacity: 1; stroke: rgb(255, 255, 255); stroke-opacity: 1;"/><path class="point" transform="translate(121.41,332.76)" d="M3.36,0A3.36,3.36 0 1,1 0,-3.36A3.36,3.36 0 0,1 3.36,0Z" style="opacity: 0.7; stroke-width: 1px; fill: rgb(235, 155, 89); fill-opacity: 1; stroke: rgb(255, 255, 255); stroke-opacity: 1;"/><path class="point" transform="translate(216.09,313.18)" d="M5.63,0A5.63,5.63 0 1,1 0,-5.63A5.63,5.63 0 0,1 5.63,0Z" style="opacity: 0.7; stroke-width: 1px; fill: rgb(213, 136, 73); fill-opacity: 1; stroke: rgb(255, 255, 255); stroke-opacity: 1;"/><path class="point" transform="translate(176.01,324.06)" d="M4.88,0A4.88,4.88 0 1,1 0,-4.88A4.88,4.88 0 0,1 4.88,0Z" style="opacity: 0.7; stroke-width: 1px; fill: rgb(221, 143, 79); fill-opacity: 1; stroke: rgb(255, 255, 255); stroke-opacity: 1;"/><path class="point" transform="translate(146.04,328.12)" d="M4.23,0A4.23,4.23 0 1,1 0,-4.23A4.23,4.23 0 0,1 4.23,0Z" style="opacity: 0.7; stroke-width: 1px; fill: rgb(228, 149, 84); fill-opacity: 1; stroke: rgb(255, 255, 255); stroke-opacity: 1;"/><path class="point" transform="translate(168.18,315.44)" d="M5.41,0A5.41,5.41 0 1,1 0,-5.41A5.41,5.41 0 0,1 5.41,0Z" style="opacity: 0.7; stroke-width: 1px; fill: rgb(216, 138, 75); fill-opacity: 1; stroke: rgb(255, 255, 255); stroke-opacity: 1;"/><path class="point" transform="translate(181.01,292.71)" d="M7.68,0A7.68,7.68 0 1,1 0,-7.68A7.68,7.68 0 0,1 7.68,0Z" style="opacity: 0.7; stroke-width: 1px; fill: rgb(184, 110, 52); fill-opacity: 1; stroke: rgb(255, 255, 255); stroke-opacity: 1;"/><path class="point" transform="translate(158.76,318.04)" d="M4.53,0A4.53,4.53 0 1,1 0,-4.53A4.53,4.53 0 0,1 4.53,0Z" style="opacity: 0.7; stroke-width: 1px; fill: rgb(225, 147, 82); fill-opacity: 1; stroke: rgb(255, 255, 255); stroke-opacity: 1;"/><path class="point" transform="translate(496.83,326.74)" d="M3.5,0A3.5,3.5 0 1,1 0,-3.5A3.5,3.5 0 0,1 3.5,0Z" style="opacity: 0.7; stroke-width: 1px; fill: rgb(234, 155, 88); fill-opacity: 1; stroke: rgb(255, 255, 255); stroke-opacity: 1;"/><path class="point" transform="translate(532.94,333.83)" d="M2.31,0A2.31,2.31 0 1,1 0,-2.31A2.31,2.31 0 0,1 2.31,0Z" style="opacity: 0.7; stroke-width: 1px; fill: rgb(241, 161, 94); fill-opacity: 1; stroke: rgb(255, 255, 255); stroke-opacity: 1;"/><path class="point" transform="translate(81.22,333.14)" d="M4.07,0A4.07,4.07 0 1,1 0,-4.07A4.07,4.07 0 0,1 4.07,0Z" style="opacity: 0.7; stroke-width: 1px; fill: rgb(229, 150, 85); fill-opacity: 1; stroke: rgb(255, 255, 255); stroke-opacity: 1;"/><path class="point" transform="translate(398.07,328.84)" d="M3.07,0A3.07,3.07 0 1,1 0,-3.07A3.07,3.07 0 0,1 3.07,0Z" style="opacity: 0.7; stroke-width: 1px; fill: rgb(237, 157, 91); fill-opacity: 1; stroke: rgb(255, 255, 255); stroke-opacity: 1;"/><path class="point" transform="translate(541.68,320.35)" d="M3.48,0A3.48,3.48 0 1,1 0,-3.48A3.48,3.48 0 0,1 3.48,0Z" style="opacity: 0.7; stroke-width: 1px; fill: rgb(234, 155, 88); fill-opacity: 1; stroke: rgb(255, 255, 255); stroke-opacity: 1;"/><path class="point" transform="translate(674.16,329.47)" d="M2.85,0A2.85,2.85 0 1,1 0,-2.85A2.85,2.85 0 0,1 2.85,0Z" style="opacity: 0.7; stroke-width: 1px; fill: rgb(238, 159, 92); fill-opacity: 1; stroke: rgb(255, 255, 255); stroke-opacity: 1;"/><path class="point" transform="translate(380.59,326.37)" d="M3.61,0A3.61,3.61 0 1,1 0,-3.61A3.61,3.61 0 0,1 3.61,0Z" style="opacity: 0.7; stroke-width: 1px; fill: rgb(233, 154, 88); fill-opacity: 1; stroke: rgb(255, 255, 255); stroke-opacity: 1;"/><path class="point" transform="translate(635.9,313.88)" d="M4.1,0A4.1,4.1 0 1,1 0,-4.1A4.1,4.1 0 0,1 4.1,0Z" style="opacity: 0.7; stroke-width: 1px; fill: rgb(229, 150, 85); fill-opacity: 1; stroke: rgb(255, 255, 255); stroke-opacity: 1;"/><path class="point" transform="translate(530.66,319.58)" d="M4.13,0A4.13,4.13 0 1,1 0,-4.13A4.13,4.13 0 0,1 4.13,0Z" style="opacity: 0.7; stroke-width: 1px; fill: rgb(228, 150, 85); fill-opacity: 1; stroke: rgb(255, 255, 255); stroke-opacity: 1;"/><path class="point" transform="translate(386.83,315.61)" d="M5.25,0A5.25,5.25 0 1,1 0,-5.25A5.25,5.25 0 0,1 5.25,0Z" style="opacity: 0.7; stroke-width: 1px; fill: rgb(217, 140, 76); fill-opacity: 1; stroke: rgb(255, 255, 255); stroke-opacity: 1;"/><path class="point" transform="translate(46.48,321.25)" d="M5.86,0A5.86,5.86 0 1,1 0,-5.86A5.86,5.86 0 0,1 5.86,0Z" style="opacity: 0.7; stroke-width: 1px; fill: rgb(210, 133, 71); fill-opacity: 1; stroke: rgb(255, 255, 255); stroke-opacity: 1;"/><path class="point" transform="translate(99.61,289.86)" d="M6.07,0A6.07,6.07 0 1,1 0,-6.07A6.07,6.07 0 0,1 6.07,0Z" style="opacity: 0.7; stroke-width: 1px; fill: rgb(207, 131, 69); fill-opacity: 1; stroke: rgb(255, 255, 255); stroke-opacity: 1;"/><path class="point" transform="translate(189.41,203.27)" d="M10.54,0A10.54,10.54 0 1,1 0,-10.54A10.54,10.54 0 0,1 10.54,0Z" style="opacity: 0.7; stroke-width: 1px; fill: rgb(131, 66, 20); fill-opacity: 1; stroke: rgb(255, 255, 255); stroke-opacity: 1;"/><path class="point" transform="translate(116.98,300.57)" d="M6.64,0A6.64,6.64 0 1,1 0,-6.64A6.64,6.64 0 0,1 6.64,0Z" style="opacity: 0.7; stroke-width: 1px; fill: rgb(200, 124, 64); fill-opacity: 1; stroke: rgb(255, 255, 255); stroke-opacity: 1;"/><path class="point" transform="translate(92.35,166.48)" d="M11.12,0A11.12,11.12 0 1,1 0,-11.12A11.12,11.12 0 0,1 11.12,0Z" style="opacity: 0.7; stroke-width: 1px; fill: rgb(121, 63, 22); fill-opacity: 1; stroke: rgb(255, 255, 255); stroke-opacity: 1;"/><path class="point" transform="translate(57.27,331.83)" d="M2.93,0A2.93,2.93 0 1,1 0,-2.93A2.93,2.93 0 0,1 2.93,0Z" style="opacity: 0.7; stroke-width: 1px; fill: rgb(237, 158, 91); fill-opacity: 1; stroke: rgb(255, 255, 255); stroke-opacity: 1;"/><path class="point" transform="translate(138.78,302.46)" d="M6.3,0A6.3,6.3 0 1,1 0,-6.3A6.3,6.3 0 0,1 6.3,0Z" style="opacity: 0.7; stroke-width: 1px; fill: rgb(204, 128, 67); fill-opacity: 1; stroke: rgb(255, 255, 255); stroke-opacity: 1;"/><path class="point" transform="translate(161.48,331.51)" d="M3.55,0A3.55,3.55 0 1,1 0,-3.55A3.55,3.55 0 0,1 3.55,0Z" style="opacity: 0.7; stroke-width: 1px; fill: rgb(233, 154, 88); fill-opacity: 1; stroke: rgb(255, 255, 255); stroke-opacity: 1;"/><path class="point" transform="translate(184.64,244.08)" d="M9.21,0A9.21,9.21 0 1,1 0,-9.21A9.21,9.21 0 0,1 9.21,0Z" style="opacity: 0.7; stroke-width: 1px; fill: rgb(156, 85, 32); fill-opacity: 1; stroke: rgb(255, 255, 255); stroke-opacity: 1;"/><path class="point" transform="translate(140.71,230.49)" d="M9.28,0A9.28,9.28 0 1,1 0,-9.28A9.28,9.28 0 0,1 9.28,0Z" style="opacity: 0.7; stroke-width: 1px; fill: rgb(155, 84, 31); fill-opacity: 1; stroke: rgb(255, 255, 255); stroke-opacity: 1;"/><path class="point" transform="translate(59.54,299.68)" d="M5.66,0A5.66,5.66 0 1,1 0,-5.66A5.66,5.66 0 0,1 5.66,0Z" style="opacity: 0.7; stroke-width: 1px; fill: rgb(213, 136, 73); fill-opacity: 1; stroke: rgb(255, 255, 255); stroke-opacity: 1;"/><path class="point" transform="translate(116.41,325.95)" d="M3.59,0A3.59,3.59 0 1,1 0,-3.59A3.59,3.59 0 0,1 3.59,0Z" style="opacity: 0.7; stroke-width: 1px; fill: rgb(233, 154, 88); fill-opacity: 1; stroke: rgb(255, 255, 255); stroke-opacity: 1;"/><path class="point" transform="translate(200.2,135.04)" d="M8.31,0A8.31,8.31 0 1,1 0,-8.31A8.31,8.31 0 0,1 8.31,0Z" style="opacity: 0.7; stroke-width: 1px; fill: rgb(173, 100, 44); fill-opacity: 1; stroke: rgb(255, 255, 255); stroke-opacity: 1;"/><path class="point" transform="translate(128.22,319.04)" d="M3.91,0A3.91,3.91 0 1,1 0,-3.91A3.91,3.91 0 0,1 3.91,0Z" style="opacity: 0.7; stroke-width: 1px; fill: rgb(230, 152, 86); fill-opacity: 1; stroke: rgb(255, 255, 255); stroke-opacity: 1;"/><path class="point" transform="translate(151.61,297.88)" d="M5.74,0A5.74,5.74 0 1,1 0,-5.74A5.74,5.74 0 0,1 5.74,0Z" style="opacity: 0.7; stroke-width: 1px; fill: rgb(212, 135, 72); fill-opacity: 1; stroke: rgb(255, 255, 255); stroke-opacity: 1;"/><path class="point" transform="translate(217.11,272.88)" d="M6.84,0A6.84,6.84 0 1,1 0,-6.84A6.84,6.84 0 0,1 6.84,0Z" style="opacity: 0.7; stroke-width: 1px; fill: rgb(197, 121, 61); fill-opacity: 1; stroke: rgb(255, 255, 255); stroke-opacity: 1;"/><path class="point" transform="translate(114.48,321.9)" d="M3.45,0A3.45,3.45 0 1,1 0,-3.45A3.45,3.45 0 0,1 3.45,0Z" style="opacity: 0.7; stroke-width: 1px; fill: rgb(234, 155, 89); fill-opacity: 1; stroke: rgb(255, 255, 255); stroke-opacity: 1;"/><path class="point" transform="translate(131.4,318.68)" d="M4.73,0A4.73,4.73 0 1,1 0,-4.73A4.73,4.73 0 0,1 4.73,0Z" style="opacity: 0.7; stroke-width: 1px; fill: rgb(223, 145, 80); fill-opacity: 1; stroke: rgb(255, 255, 255); stroke-opacity: 1;"/><path class="point" transform="translate(135.37,247.33)" d="M8.86,0A8.86,8.86 0 1,1 0,-8.86A8.86,8.86 0 0,1 8.86,0Z" style="opacity: 0.7; stroke-width: 1px; fill: rgb(163, 91, 37); fill-opacity: 1; stroke: rgb(255, 255, 255); stroke-opacity: 1;"/><path class="point" transform="translate(66.92,131.8)" d="M11.87,0A11.87,11.87 0 1,1 0,-11.87A11.87,11.87 0 0,1 11.87,0Z" style="opacity: 0.7; stroke-width: 1px; fill: rgb(108, 59, 24); fill-opacity: 1; stroke: rgb(255, 255, 255); stroke-opacity: 1;"/><path class="point" transform="translate(147.29,205.83)" d="M8.32,0A8.32,8.32 0 1,1 0,-8.32A8.32,8.32 0 0,1 8.32,0Z" style="opacity: 0.7; stroke-width: 1px; fill: rgb(173, 100, 44); fill-opacity: 1; stroke: rgb(255, 255, 255); stroke-opacity: 1;"/><path class="point" transform="translate(166.48,327.41)" d="M3.61,0A3.61,3.61 0 1,1 0,-3.61A3.61,3.61 0 0,1 3.61,0Z" style="opacity: 0.7; stroke-width: 1px; fill: rgb(233, 154, 88); fill-opacity: 1; stroke: rgb(255, 255, 255); stroke-opacity: 1;"/><path class="point" transform="translate(109.49,325.94)" d="M3.97,0A3.97,3.97 0 1,1 0,-3.97A3.97,3.97 0 0,1 3.97,0Z" style="opacity: 0.7; stroke-width: 1px; fill: rgb(230, 151, 86); fill-opacity: 1; stroke: rgb(255, 255, 255); stroke-opacity: 1;"/><path class="point" transform="translate(72.14,324.21)" d="M3.46,0A3.46,3.46 0 1,1 0,-3.46A3.46,3.46 0 0,1 3.46,0Z" style="opacity: 0.7; stroke-width: 1px; fill: rgb(234, 155, 89); fill-opacity: 1; stroke: rgb(255, 255, 255); stroke-opacity: 1;"/><path class="point" transform="translate(248.33,268.88)" d="M6.65,0A6.65,6.65 0 1,1 0,-6.65A6.65,6.65 0 0,1 6.65,0Z" style="opacity: 0.7; stroke-width: 1px; fill: rgb(200, 124, 63); fill-opacity: 1; stroke: rgb(255, 255, 255); stroke-opacity: 1;"/><path class="point" transform="translate(101.88,321.86)" d="M4.85,0A4.85,4.85 0 1,1 0,-4.85A4.85,4.85 0 0,1 4.85,0Z" style="opacity: 0.7; stroke-width: 1px; fill: rgb(222, 144, 80); fill-opacity: 1; stroke: rgb(255, 255, 255); stroke-opacity: 1;"/><path class="point" transform="translate(119.03,307.29)" d="M5.29,0A5.29,5.29 0 1,1 0,-5.29A5.29,5.29 0 0,1 5.29,0Z" style="opacity: 0.7; stroke-width: 1px; fill: rgb(217, 139, 76); fill-opacity: 1; stroke: rgb(255, 255, 255); stroke-opacity: 1;"/><path class="point" transform="translate(86.9,337.2)" d="M2.86,0A2.86,2.86 0 1,1 0,-2.86A2.86,2.86 0 0,1 2.86,0Z" style="opacity: 0.7; stroke-width: 1px; fill: rgb(238, 158, 92); fill-opacity: 1; stroke: rgb(255, 255, 255); stroke-opacity: 1;"/><path class="point" transform="translate(138.32,270.55)" d="M7.7,0A7.7,7.7 0 1,1 0,-7.7A7.7,7.7 0 0,1 7.7,0Z" style="opacity: 0.7; stroke-width: 1px; fill: rgb(184, 109, 52); fill-opacity: 1; stroke: rgb(255, 255, 255); stroke-opacity: 1;"/><path class="point" transform="translate(142.98,251.43)" d="M7.44,0A7.44,7.44 0 1,1 0,-7.44A7.44,7.44 0 0,1 7.44,0Z" style="opacity: 0.7; stroke-width: 1px; fill: rgb(188, 113, 55); fill-opacity: 1; stroke: rgb(255, 255, 255); stroke-opacity: 1;"/><path class="point" transform="translate(212.8,327.02)" d="M3.29,0A3.29,3.29 0 1,1 0,-3.29A3.29,3.29 0 0,1 3.29,0Z" style="opacity: 0.7; stroke-width: 1px; fill: rgb(235, 156, 89); fill-opacity: 1; stroke: rgb(255, 255, 255); stroke-opacity: 1;"/><path class="point" transform="translate(199.97,320.33)" d="M4.15,0A4.15,4.15 0 1,1 0,-4.15A4.15,4.15 0 0,1 4.15,0Z" style="opacity: 0.7; stroke-width: 1px; fill: rgb(228, 150, 84); fill-opacity: 1; stroke: rgb(255, 255, 255); stroke-opacity: 1;"/><path class="point" transform="translate(71.46,315.37)" d="M4.2,0A4.2,4.2 0 1,1 0,-4.2A4.2,4.2 0 0,1 4.2,0Z" style="opacity: 0.7; stroke-width: 1px; fill: rgb(228, 149, 84); fill-opacity: 1; stroke: rgb(255, 255, 255); stroke-opacity: 1;"/><path class="point" transform="translate(161.26,240.51)" d="M7.57,0A7.57,7.57 0 1,1 0,-7.57A7.57,7.57 0 0,1 7.57,0Z" style="opacity: 0.7; stroke-width: 1px; fill: rgb(186, 111, 53); fill-opacity: 1; stroke: rgb(255, 255, 255); stroke-opacity: 1;"/><path class="point" transform="translate(163.19,300.06)" d="M5.58,0A5.58,5.58 0 1,1 0,-5.58A5.58,5.58 0 0,1 5.58,0Z" style="opacity: 0.7; stroke-width: 1px; fill: rgb(214, 136, 74); fill-opacity: 1; stroke: rgb(255, 255, 255); stroke-opacity: 1;"/><path class="point" transform="translate(174.08,153.49)" d="M11.91,0A11.91,11.91 0 1,1 0,-11.91A11.91,11.91 0 0,1 11.91,0Z" style="opacity: 0.7; stroke-width: 1px; fill: rgb(107, 58, 24); fill-opacity: 1; stroke: rgb(255, 255, 255); stroke-opacity: 1;"/><path class="point" transform="translate(165,320.66)" d="M4.52,0A4.52,4.52 0 1,1 0,-4.52A4.52,4.52 0 0,1 4.52,0Z" style="opacity: 0.7; stroke-width: 1px; fill: rgb(225, 147, 82); fill-opacity: 1; stroke: rgb(255, 255, 255); stroke-opacity: 1;"/><path class="point" transform="translate(59.2,338.55)" d="M1.86,0A1.86,1.86 0 1,1 0,-1.86A1.86,1.86 0 0,1 1.86,0Z" style="opacity: 0.7; stroke-width: 1px; fill: rgb(243, 163, 95); fill-opacity: 1; stroke: rgb(255, 255, 255); stroke-opacity: 1;"/><path class="point" transform="translate(108.01,33.81)" d="M14.14,0A14.14,14.14 0 1,1 0,-14.14A14.14,14.14 0 0,1 14.14,0Z" style="opacity: 0.7; stroke-width: 1px; fill: rgb(61, 43, 31); fill-opacity: 1; stroke: rgb(255, 255, 255); stroke-opacity: 1;"/><path class="point" transform="translate(101.54,294.82)" d="M5.01,0A5.01,5.01 0 1,1 0,-5.01A5.01,5.01 0 0,1 5.01,0Z" style="opacity: 0.7; stroke-width: 1px; fill: rgb(220, 142, 78); fill-opacity: 1; stroke: rgb(255, 255, 255); stroke-opacity: 1;"/><path class="point" transform="translate(126.06,265.72)" d="M5.9,0A5.9,5.9 0 1,1 0,-5.9A5.9,5.9 0 0,1 5.9,0Z" style="opacity: 0.7; stroke-width: 1px; fill: rgb(210, 133, 71); fill-opacity: 1; stroke: rgb(255, 255, 255); stroke-opacity: 1;"/><path class="point" transform="translate(174.54,226.19)" d="M7.95,0A7.95,7.95 0 1,1 0,-7.95A7.95,7.95 0 0,1 7.95,0Z" style="opacity: 0.7; stroke-width: 1px; fill: rgb(179, 106, 49); fill-opacity: 1; stroke: rgb(255, 255, 255); stroke-opacity: 1;"/><path class="point" transform="translate(162.28,52.86)" d="M13.47,0A13.47,13.47 0 1,1 0,-13.47A13.47,13.47 0 0,1 13.47,0Z" style="opacity: 0.7; stroke-width: 1px; fill: rgb(76, 48, 29); fill-opacity: 1; stroke: rgb(255, 255, 255); stroke-opacity: 1;"/><path class="point" transform="translate(183.73,298.06)" d="M5.27,0A5.27,5.27 0 1,1 0,-5.27A5.27,5.27 0 0,1 5.27,0Z" style="opacity: 0.7; stroke-width: 1px; fill: rgb(217, 140, 76); fill-opacity: 1; stroke: rgb(255, 255, 255); stroke-opacity: 1;"/><path class="point" transform="translate(216.09,262.94)" d="M6.38,0A6.38,6.38 0 1,1 0,-6.38A6.38,6.38 0 0,1 6.38,0Z" style="opacity: 0.7; stroke-width: 1px; fill: rgb(203, 127, 66); fill-opacity: 1; stroke: rgb(255, 255, 255); stroke-opacity: 1;"/><path class="point" transform="translate(156.03,297.01)" d="M4.98,0A4.98,4.98 0 1,1 0,-4.98A4.98,4.98 0 0,1 4.98,0Z" style="opacity: 0.7; stroke-width: 1px; fill: rgb(220, 143, 79); fill-opacity: 1; stroke: rgb(255, 255, 255); stroke-opacity: 1;"/><path class="point" transform="translate(66.12,279.78)" d="M7.17,0A7.17,7.17 0 1,1 0,-7.17A7.17,7.17 0 0,1 7.17,0Z" style="opacity: 0.7; stroke-width: 1px; fill: rgb(192, 117, 58); fill-opacity: 1; stroke: rgb(255, 255, 255); stroke-opacity: 1;"/><path class="point" transform="translate(210.87,42.07)" d="M13.36,0A13.36,13.36 0 1,1 0,-13.36A13.36,13.36 0 0,1 13.36,0Z" style="opacity: 0.7; stroke-width: 1px; fill: rgb(78, 49, 28); fill-opacity: 1; stroke: rgb(255, 255, 255); stroke-opacity: 1;"/><path class="point" transform="translate(146.95,265.39)" d="M6.49,0A6.49,6.49 0 1,1 0,-6.49A6.49,6.49 0 0,1 6.49,0Z" style="opacity: 0.7; stroke-width: 1px; fill: rgb(202, 126, 65); fill-opacity: 1; stroke: rgb(255, 255, 255); stroke-opacity: 1;"/><path class="point" transform="translate(240.5,293.7)" d="M5.18,0A5.18,5.18 0 1,1 0,-5.18A5.18,5.18 0 0,1 5.18,0Z" style="opacity: 0.7; stroke-width: 1px; fill: rgb(218, 140, 77); fill-opacity: 1; stroke: rgb(255, 255, 255); stroke-opacity: 1;"/><path class="point" transform="translate(183.51,273.42)" d="M6.93,0A6.93,6.93 0 1,1 0,-6.93A6.93,6.93 0 0,1 6.93,0Z" style="opacity: 0.7; stroke-width: 1px; fill: rgb(195, 120, 60); fill-opacity: 1; stroke: rgb(255, 255, 255); stroke-opacity: 1;"/><path class="point" transform="translate(69.87,328.53)" d="M2.77,0A2.77,2.77 0 1,1 0,-2.77A2.77,2.77 0 0,1 2.77,0Z" style="opacity: 0.7; stroke-width: 1px; fill: rgb(238, 159, 92); fill-opacity: 1; stroke: rgb(255, 255, 255); stroke-opacity: 1;"/><path class="point" transform="translate(117.55,316.13)" d="M3.82,0A3.82,3.82 0 1,1 0,-3.82A3.82,3.82 0 0,1 3.82,0Z" style="opacity: 0.7; stroke-width: 1px; fill: rgb(231, 152, 87); fill-opacity: 1; stroke: rgb(255, 255, 255); stroke-opacity: 1;"/><path class="point" transform="translate(172.84,306.96)" d="M4.37,0A4.37,4.37 0 1,1 0,-4.37A4.37,4.37 0 0,1 4.37,0Z" style="opacity: 0.7; stroke-width: 1px; fill: rgb(226, 148, 83); fill-opacity: 1; stroke: rgb(255, 255, 255); stroke-opacity: 1;"/><path class="point" transform="translate(157.06,308.66)" d="M4.37,0A4.37,4.37 0 1,1 0,-4.37A4.37,4.37 0 0,1 4.37,0Z" style="opacity: 0.7; stroke-width: 1px; fill: rgb(226, 148, 83); fill-opacity: 1; stroke: rgb(255, 255, 255); stroke-opacity: 1;"/><path class="point" transform="translate(137.42,306.99)" d="M4.23,0A4.23,4.23 0 1,1 0,-4.23A4.23,4.23 0 0,1 4.23,0Z" style="opacity: 0.7; stroke-width: 1px; fill: rgb(228, 149, 84); fill-opacity: 1; stroke: rgb(255, 255, 255); stroke-opacity: 1;"/><path class="point" transform="translate(125.61,276.36)" d="M6.09,0A6.09,6.09 0 1,1 0,-6.09A6.09,6.09 0 0,1 6.09,0Z" style="opacity: 0.7; stroke-width: 1px; fill: rgb(207, 131, 69); fill-opacity: 1; stroke: rgb(255, 255, 255); stroke-opacity: 1;"/><path class="point" transform="translate(146.27,309.64)" d="M4.32,0A4.32,4.32 0 1,1 0,-4.32A4.32,4.32 0 0,1 4.32,0Z" style="opacity: 0.7; stroke-width: 1px; fill: rgb(227, 148, 83); fill-opacity: 1; stroke: rgb(255, 255, 255); stroke-opacity: 1;"/><path class="point" transform="translate(158.87,287.15)" d="M5.6,0A5.6,5.6 0 1,1 0,-5.6A5.6,5.6 0 0,1 5.6,0Z" style="opacity: 0.7; stroke-width: 1px; fill: rgb(213, 136, 73); fill-opacity: 1; stroke: rgb(255, 255, 255); stroke-opacity: 1;"/><path class="point" transform="translate(158.3,277.6)" d="M6.32,0A6.32,6.32 0 1,1 0,-6.32A6.32,6.32 0 0,1 6.32,0Z" style="opacity: 0.7; stroke-width: 1px; fill: rgb(204, 128, 67); fill-opacity: 1; stroke: rgb(255, 255, 255); stroke-opacity: 1;"/><path class="point" transform="translate(147.75,196.6)" d="M10.05,0A10.05,10.05 0 1,1 0,-10.05A10.05,10.05 0 0,1 10.05,0Z" style="opacity: 0.7; stroke-width: 1px; fill: rgb(139, 69, 19); fill-opacity: 1; stroke: rgb(255, 255, 255); stroke-opacity: 1;"/><path class="point" transform="translate(198.04,292.45)" d="M5.42,0A5.42,5.42 0 1,1 0,-5.42A5.42,5.42 0 0,1 5.42,0Z" style="opacity: 0.7; stroke-width: 1px; fill: rgb(215, 138, 75); fill-opacity: 1; stroke: rgb(255, 255, 255); stroke-opacity: 1;"/><path class="point" transform="translate(178.51,261.83)" d="M7.11,0A7.11,7.11 0 1,1 0,-7.11A7.11,7.11 0 0,1 7.11,0Z" style="opacity: 0.7; stroke-width: 1px; fill: rgb(193, 118, 58); fill-opacity: 1; stroke: rgb(255, 255, 255); stroke-opacity: 1;"/><path class="point" transform="translate(87.58,322.8)" d="M3.88,0A3.88,3.88 0 1,1 0,-3.88A3.88,3.88 0 0,1 3.88,0Z" style="opacity: 0.7; stroke-width: 1px; fill: rgb(231, 152, 86); fill-opacity: 1; stroke: rgb(255, 255, 255); stroke-opacity: 1;"/><path class="point" transform="translate(182.49,247.42)" d="M6.98,0A6.98,6.98 0 1,1 0,-6.98A6.98,6.98 0 0,1 6.98,0Z" style="opacity: 0.7; stroke-width: 1px; fill: rgb(195, 119, 60); fill-opacity: 1; stroke: rgb(255, 255, 255); stroke-opacity: 1;"/><path class="point" transform="translate(124.47,336.35)" d="M2.3,0A2.3,2.3 0 1,1 0,-2.3A2.3,2.3 0 0,1 2.3,0Z" style="opacity: 0.7; stroke-width: 1px; fill: rgb(241, 161, 94); fill-opacity: 1; stroke: rgb(255, 255, 255); stroke-opacity: 1;"/><path class="point" transform="translate(41.83,331.37)" d="M1.56,0A1.56,1.56 0 1,1 0,-1.56A1.56,1.56 0 0,1 1.56,0Z" style="opacity: 0.7; stroke-width: 1px; fill: rgb(244, 164, 96); fill-opacity: 1; stroke: rgb(255, 255, 255); stroke-opacity: 1;"/><path class="point" transform="translate(126.63,327.53)" d="M3.12,0A3.12,3.12 0 1,1 0,-3.12A3.12,3.12 0 0,1 3.12,0Z" style="opacity: 0.7; stroke-width: 1px; fill: rgb(236, 157, 90); fill-opacity: 1; stroke: rgb(255, 255, 255); stroke-opacity: 1;"/><path class="point" transform="translate(155.81,276.78)" d="M6.76,0A6.76,6.76 0 1,1 0,-6.76A6.76,6.76 0 0,1 6.76,0Z" style="opacity: 0.7; stroke-width: 1px; fill: rgb(198, 122, 62); fill-opacity: 1; stroke: rgb(255, 255, 255); stroke-opacity: 1;"/><path class="point" transform="translate(145.59,316.14)" d="M4.79,0A4.79,4.79 0 1,1 0,-4.79A4.79,4.79 0 0,1 4.79,0Z" style="opacity: 0.7; stroke-width: 1px; fill: rgb(222, 144, 80); fill-opacity: 1; stroke: rgb(255, 255, 255); stroke-opacity: 1;"/><path class="point" transform="translate(149,265.94)" d="M6.22,0A6.22,6.22 0 1,1 0,-6.22A6.22,6.22 0 0,1 6.22,0Z" style="opacity: 0.7; stroke-width: 1px; fill: rgb(205, 129, 68); fill-opacity: 1; stroke: rgb(255, 255, 255); stroke-opacity: 1;"/><path class="point" transform="translate(118.91,309.93)" d="M3.84,0A3.84,3.84 0 1,1 0,-3.84A3.84,3.84 0 0,1 3.84,0Z" style="opacity: 0.7; stroke-width: 1px; fill: rgb(231, 152, 86); fill-opacity: 1; stroke: rgb(255, 255, 255); stroke-opacity: 1;"/><path class="point" transform="translate(121.07,320.67)" d="M3.03,0A3.03,3.03 0 1,1 0,-3.03A3.03,3.03 0 0,1 3.03,0Z" style="opacity: 0.7; stroke-width: 1px; fill: rgb(237, 158, 91); fill-opacity: 1; stroke: rgb(255, 255, 255); stroke-opacity: 1;"/><path class="point" transform="translate(92.01,310.88)" d="M3.55,0A3.55,3.55 0 1,1 0,-3.55A3.55,3.55 0 0,1 3.55,0Z" style="opacity: 0.7; stroke-width: 1px; fill: rgb(233, 154, 88); fill-opacity: 1; stroke: rgb(255, 255, 255); stroke-opacity: 1;"/><path class="point" transform="translate(128.11,299.52)" d="M4.4,0A4.4,4.4 0 1,1 0,-4.4A4.4,4.4 0 0,1 4.4,0Z" style="opacity: 0.7; stroke-width: 1px; fill: rgb(226, 148, 83); fill-opacity: 1; stroke: rgb(255, 255, 255); stroke-opacity: 1;"/><path class="point" transform="translate(61.7,314.02)" d="M3.39,0A3.39,3.39 0 1,1 0,-3.39A3.39,3.39 0 0,1 3.39,0Z" style="opacity: 0.7; stroke-width: 1px; fill: rgb(234, 155, 89); fill-opacity: 1; stroke: rgb(255, 255, 255); stroke-opacity: 1;"/><path class="point" transform="translate(114.14,293.12)" d="M4.89,0A4.89,4.89 0 1,1 0,-4.89A4.89,4.89 0 0,1 4.89,0Z" style="opacity: 0.7; stroke-width: 1px; fill: rgb(221, 143, 79); fill-opacity: 1; stroke: rgb(255, 255, 255); stroke-opacity: 1;"/><path class="point" transform="translate(99.84,274.88)" d="M5.98,0A5.98,5.98 0 1,1 0,-5.98A5.98,5.98 0 0,1 5.98,0Z" style="opacity: 0.7; stroke-width: 1px; fill: rgb(209, 132, 70); fill-opacity: 1; stroke: rgb(255, 255, 255); stroke-opacity: 1;"/><path class="point" transform="translate(63.85,308.27)" d="M3.67,0A3.67,3.67 0 1,1 0,-3.67A3.67,3.67 0 0,1 3.67,0Z" style="opacity: 0.7; stroke-width: 1px; fill: rgb(232, 153, 87); fill-opacity: 1; stroke: rgb(255, 255, 255); stroke-opacity: 1;"/><path class="point" transform="translate(99.95,287.7)" d="M5.19,0A5.19,5.19 0 1,1 0,-5.19A5.19,5.19 0 0,1 5.19,0Z" style="opacity: 0.7; stroke-width: 1px; fill: rgb(218, 140, 77); fill-opacity: 1; stroke: rgb(255, 255, 255); stroke-opacity: 1;"/><path class="point" transform="translate(106.2,257.9)" d="M6.57,0A6.57,6.57 0 1,1 0,-6.57A6.57,6.57 0 0,1 6.57,0Z" style="opacity: 0.7; stroke-width: 1px; fill: rgb(201, 125, 64); fill-opacity: 1; stroke: rgb(255, 255, 255); stroke-opacity: 1;"/><path class="point" transform="translate(99.39,255.21)" d="M6.32,0A6.32,6.32 0 1,1 0,-6.32A6.32,6.32 0 0,1 6.32,0Z" style="opacity: 0.7; stroke-width: 1px; fill: rgb(204, 128, 67); fill-opacity: 1; stroke: rgb(255, 255, 255); stroke-opacity: 1;"/><path class="point" transform="translate(98.59,202.22)" d="M8.1,0A8.1,8.1 0 1,1 0,-8.1A8.1,8.1 0 0,1 8.1,0Z" style="opacity: 0.7; stroke-width: 1px; fill: rgb(177, 103, 47); fill-opacity: 1; stroke: rgb(255, 255, 255); stroke-opacity: 1;"/><path class="point" transform="translate(66.46,290.06)" d="M4.61,0A4.61,4.61 0 1,1 0,-4.61A4.61,4.61 0 0,1 4.61,0Z" style="opacity: 0.7; stroke-width: 1px; fill: rgb(224, 146, 81); fill-opacity: 1; stroke: rgb(255, 255, 255); stroke-opacity: 1;"/><path class="point" transform="translate(83.83,322.99)" d="M4.14,0A4.14,4.14 0 1,1 0,-4.14A4.14,4.14 0 0,1 4.14,0Z" style="opacity: 0.7; stroke-width: 1px; fill: rgb(228, 150, 85); fill-opacity: 1; stroke: rgb(255, 255, 255); stroke-opacity: 1;"/><path class="point" transform="translate(58.29,338.23)" d="M1.79,0A1.79,1.79 0 1,1 0,-1.79A1.79,1.79 0 0,1 1.79,0Z" style="opacity: 0.7; stroke-width: 1px; fill: rgb(243, 163, 95); fill-opacity: 1; stroke: rgb(255, 255, 255); stroke-opacity: 1;"/><path class="point" transform="translate(140.59,315.22)" d="M3.99,0A3.99,3.99 0 1,1 0,-3.99A3.99,3.99 0 0,1 3.99,0Z" style="opacity: 0.7; stroke-width: 1px; fill: rgb(230, 151, 86); fill-opacity: 1; stroke: rgb(255, 255, 255); stroke-opacity: 1;"/><path class="point" transform="translate(48.87,295.59)" d="M5.07,0A5.07,5.07 0 1,1 0,-5.07A5.07,5.07 0 0,1 5.07,0Z" style="opacity: 0.7; stroke-width: 1px; fill: rgb(219, 142, 78); fill-opacity: 1; stroke: rgb(255, 255, 255); stroke-opacity: 1;"/><path class="point" transform="translate(121.41,308.17)" d="M4.72,0A4.72,4.72 0 1,1 0,-4.72A4.72,4.72 0 0,1 4.72,0Z" style="opacity: 0.7; stroke-width: 1px; fill: rgb(223, 145, 81); fill-opacity: 1; stroke: rgb(255, 255, 255); stroke-opacity: 1;"/><path class="point" transform="translate(48.87,331.77)" d="M2.79,0A2.79,2.79 0 1,1 0,-2.79A2.79,2.79 0 0,1 2.79,0Z" style="opacity: 0.7; stroke-width: 1px; fill: rgb(238, 159, 92); fill-opacity: 1; stroke: rgb(255, 255, 255); stroke-opacity: 1;"/><path class="point" transform="translate(134.46,254.49)" d="M6.72,0A6.72,6.72 0 1,1 0,-6.72A6.72,6.72 0 0,1 6.72,0Z" style="opacity: 0.7; stroke-width: 1px; fill: rgb(199, 123, 63); fill-opacity: 1; stroke: rgb(255, 255, 255); stroke-opacity: 1;"/><path class="point" transform="translate(82.13,331.38)" d="M2.48,0A2.48,2.48 0 1,1 0,-2.48A2.48,2.48 0 0,1 2.48,0Z" style="opacity: 0.7; stroke-width: 1px; fill: rgb(240, 160, 93); fill-opacity: 1; stroke: rgb(255, 255, 255); stroke-opacity: 1;"/><path class="point" transform="translate(91.89,328.14)" d="M3.26,0A3.26,3.26 0 1,1 0,-3.26A3.26,3.26 0 0,1 3.26,0Z" style="opacity: 0.7; stroke-width: 1px; fill: rgb(235, 156, 90); fill-opacity: 1; stroke: rgb(255, 255, 255); stroke-opacity: 1;"/><path class="point" transform="translate(43.76,328.33)" d="M2.67,0A2.67,2.67 0 1,1 0,-2.67A2.67,2.67 0 0,1 2.67,0Z" style="opacity: 0.7; stroke-width: 1px; fill: rgb(239, 160, 92); fill-opacity: 1; stroke: rgb(255, 255, 255); stroke-opacity: 1;"/><path class="point" transform="translate(38.65,339)" d="M1.67,0A1.67,1.67 0 1,1 0,-1.67A1.67,1.67 0 0,1 1.67,0Z" style="opacity: 0.7; stroke-width: 1px; fill: rgb(244, 164, 96); fill-opacity: 1; stroke: rgb(255, 255, 255); stroke-opacity: 1;"/></g><g class="text"/></g></g></g><g class="overplot"/><path class="xlines-above crisp" d="M0,0" style="fill: none;"/><path class="ylines-above crisp" d="M0,0" style="fill: none;"/><g class="overlines-above"/><g class="xaxislayer-above"><g class="xtick"><text text-anchor="middle" x="0" y="433" transform="translate(111.38,0)" style="font-family: 'Open Sans', verdana, arial, sans-serif; font-size: 12px; fill: rgb(42, 63, 95); fill-opacity: 1; white-space: pre;">0</text></g><g class="xtick"><text text-anchor="middle" x="0" y="433" transform="translate(247.61,0)" style="font-family: 'Open Sans', verdana, arial, sans-serif; font-size: 12px; fill: rgb(42, 63, 95); fill-opacity: 1; white-space: pre;">20</text></g><g class="xtick"><text text-anchor="middle" x="0" y="433" transform="translate(383.84,0)" style="font-family: 'Open Sans', verdana, arial, sans-serif; font-size: 12px; fill: rgb(42, 63, 95); fill-opacity: 1; white-space: pre;">40</text></g><g class="xtick"><text text-anchor="middle" x="0" y="433" transform="translate(520.0699999999999,0)" style="font-family: 'Open Sans', verdana, arial, sans-serif; font-size: 12px; fill: rgb(42, 63, 95); fill-opacity: 1; white-space: pre;">60</text></g><g class="xtick"><text text-anchor="middle" x="0" y="433" transform="translate(656.3,0)" style="font-family: 'Open Sans', verdana, arial, sans-serif; font-size: 12px; fill: rgb(42, 63, 95); fill-opacity: 1; white-space: pre;">80</text></g><g class="xtick"><text text-anchor="middle" x="0" y="433" transform="translate(792.53,0)" style="font-family: 'Open Sans', verdana, arial, sans-serif; font-size: 12px; fill: rgb(42, 63, 95); fill-opacity: 1; white-space: pre;">100</text></g></g><g class="yaxislayer-above"><g class="ytick"><text text-anchor="end" x="79" y="4.199999999999999" transform="translate(0,402.86)" style="font-family: 'Open Sans', verdana, arial, sans-serif; font-size: 12px; fill: rgb(42, 63, 95); fill-opacity: 1; white-space: pre;">0</text></g><g class="ytick"><text text-anchor="end" x="79" y="4.199999999999999" transform="translate(0,341.71)" style="font-family: 'Open Sans', verdana, arial, sans-serif; font-size: 12px; fill: rgb(42, 63, 95); fill-opacity: 1; white-space: pre;">2M</text></g><g class="ytick"><text text-anchor="end" x="79" y="4.199999999999999" transform="translate(0,280.56)" style="font-family: 'Open Sans', verdana, arial, sans-serif; font-size: 12px; fill: rgb(42, 63, 95); fill-opacity: 1; white-space: pre;">4M</text></g><g class="ytick"><text text-anchor="end" x="79" y="4.199999999999999" transform="translate(0,219.41)" style="font-family: 'Open Sans', verdana, arial, sans-serif; font-size: 12px; fill: rgb(42, 63, 95); fill-opacity: 1; white-space: pre;">6M</text></g><g class="ytick"><text text-anchor="end" x="79" y="4.199999999999999" transform="translate(0,158.26)" style="font-family: 'Open Sans', verdana, arial, sans-serif; font-size: 12px; fill: rgb(42, 63, 95); fill-opacity: 1; white-space: pre;">8M</text></g><g class="ytick"><text text-anchor="end" x="79" y="4.199999999999999" transform="translate(0,97.11)" style="font-family: 'Open Sans', verdana, arial, sans-serif; font-size: 12px; fill: rgb(42, 63, 95); fill-opacity: 1; white-space: pre;">10M</text></g></g><g class="overaxes-above"/></g></g><g class="polarlayer"/><g class="ternarylayer"/><g class="geolayer"/><g class="funnelarealayer"/><g class="pielayer"/><g class="treemaplayer"/><g class="sunburstlayer"/><g class="glimages"/><defs id="topdefs-5280bf"><g class="clips"/></defs><g class="layer-above"><g class="imagelayer"/><g class="shapelayer"/></g><g class="infolayer"><g class="cbcoloraxis colorbar" transform="translate(80,60)"><rect class="cbbg" x="727" y="0" width="80.90625" height="360" style="fill: rgb(0, 0, 0); fill-opacity: 0; stroke: rgb(68, 68, 68); stroke-opacity: 1; stroke-width: 0;"/><g class="cbfills" transform="translate(0,30)"><rect class="cbfill" x="737" width="30" y="0" height="320" style="fill: url('#g5280bf-cbcoloraxis');"/></g><g class="cblines" transform="translate(0,30)"/><g class="cbaxis crisp" transform="translate(0,-60)"><g class="ycbcoloraxistick"><text text-anchor="start" x="769.9" y="4.199999999999999" transform="translate(0,353.71)" style="font-family: 'Open Sans', verdana, arial, sans-serif; font-size: 12px; fill: rgb(42, 63, 95); fill-opacity: 1; white-space: pre;">50k</text></g><g class="ycbcoloraxistick"><text text-anchor="start" x="769.9" y="4.199999999999999" transform="translate(0,293.46000000000004)" style="font-family: 'Open Sans', verdana, arial, sans-serif; font-size: 12px; fill: rgb(42, 63, 95); fill-opacity: 1; white-space: pre;">100k</text></g><g class="ycbcoloraxistick"><text text-anchor="start" x="769.9" y="4.199999999999999" transform="translate(0,233.22000000000003)" style="font-family: 'Open Sans', verdana, arial, sans-serif; font-size: 12px; fill: rgb(42, 63, 95); fill-opacity: 1; white-space: pre;">150k</text></g><g class="ycbcoloraxistick"><text text-anchor="start" x="769.9" y="4.199999999999999" transform="translate(0,172.97000000000003)" style="font-family: 'Open Sans', verdana, arial, sans-serif; font-size: 12px; fill: rgb(42, 63, 95); fill-opacity: 1; white-space: pre;">200k</text></g><g class="ycbcoloraxistick"><text text-anchor="start" x="769.9" y="4.199999999999999" transform="translate(0,112.73000000000002)" style="font-family: 'Open Sans', verdana, arial, sans-serif; font-size: 12px; fill: rgb(42, 63, 95); fill-opacity: 1; white-space: pre;">250k</text></g></g><g class="cbtitleunshift" transform="translate(-80,-60)"><g class="cbtitle" transform="translate(0,0)"><text class="ycbcoloraxistitle" x="817.2600000000001" y="82" text-anchor="start" style="font-family: 'Open Sans', verdana, arial, sans-serif; font-size: 12px; fill: rgb(42, 63, 95); opacity: 1; font-weight: normal; white-space: pre;">likes</text></g></g><rect class="cboutline" x="737" y="30" width="30" height="320" style="stroke: rgb(68, 68, 68); stroke-opacity: 1; fill: none; stroke-width: 0;"/></g><g class="g-gtitle"/><g class="g-xtitle"><text class="xtitle" x="436.5" y="460.8" text-anchor="middle" style="font-family: 'Open Sans', verdana, arial, sans-serif; font-size: 14px; fill: rgb(42, 63, 95); opacity: 1; font-weight: normal; white-space: pre;">duration</text></g><g class="g-ytitle"><text class="ytitle" transform="rotate(-90,28.825000000000003,240)" x="28.825000000000003" y="240" text-anchor="middle" style="font-family: 'Open Sans', verdana, arial, sans-serif; font-size: 14px; fill: rgb(42, 63, 95); opacity: 1; font-weight: normal; white-space: pre;">views</text></g></g></svg>