<svg class="main-svg" xmlns="http://www.w3.org/2000/svg" xmlns:xlink="http://www.w3.org/1999/xlink" width="900" height="500" style="" viewBox="0 0 900 500"><rect x="0" y="0" width="900" height="500" style="fill: rgb(255, 255, 255); fill-opacity: 1;"/><defs id="defs-401dcd"><g class="clips"><clipPath id="clip401dcdxyplot" class="plotclip"><rect width="713" height="360"/></clipPath><clipPath class="axesclip" id="clip401dcdx"><rect x="80" y="0" width="713" height="500"/></clipPath><clipPath class="axesclip" id="clip401dcdy"><rect x="0" y="60" width="900" height="360"/></clipPath><clipPath class="axesclip" id="clip401dcdxy"><rect x="80" y="60" width="713" height="360"/></clipPath></g><g class="gradients"><linearGradient x1="0" x2="0" y1="1" y2="0" id="g401dcd-cbcoloraxis"><stop offset="0%" stop-color="rgb(7, 159, 224)" stop-opacity="1"/><stop offset="100%" stop-color="rgb(61, 8, 84)" stop-opacity="1"/></linearGradient></g></defs><g class="bglayer"><rect class="bg" x="80" y="60" width="713" height="360" style="fill: rgb(229, 236, 246); fill-opacity: 1; stroke-width: 0;"/></g><g class="layer-below"><g class="imagelayer"/><g class="shapelayer"/></g><g class="cartesianlayer"><g class="subplot xy"><g class="layer-subplot"><g class="shapelayer"/><g class="imagelayer"/></g><g class="gridlayer"><g class="x"><path class="xgrid crisp" transform="translate(101.4,0)" d="M0,60v360" style="stroke: rgb(255, 255, 255); stroke-opacity: 1; stroke-width: 1px;"/><path class="xgrid crisp" transform="translate(200.91,0)" d="M0,60v360" style="stroke: rgb(255, 255, 255); stroke-opacity: 1; stroke-width: 1px;"/><path class="xgrid crisp" transform="translate(300.69,0)" d="M0,60v360" style="stroke: rgb(255, 255, 255); stroke-opacity: 1; stroke-width: 1px;"/><path class="xgrid crisp" transform="translate(400.2,0)" d="M0,60v360" style="stroke: rgb(255, 255, 255); stroke-opacity: 1; stroke-width: 1px;"/><path class="xgrid crisp" transform="translate(499.7,0)" d="M0,60v360" style="stroke: rgb(255, 255, 255); stroke-opacity: 1; stroke-width: 1px;"/><path class="xgrid crisp" transform="translate(599.21,0)" d="M0,60v360" style="stroke: rgb(255, 255, 255); stroke-opacity: 1; stroke-width: 1px;"/><path class="xgrid crisp" transform="translate(698.99,0)" d="M0,60v360" style="stroke: rgb(255, 255, 255); stroke-opacity: 1; stroke-width: 1px;"/></g><g class="y"><path class="ygrid crisp" transform="translate(0,334.51)" d="M80,0h713" style="stroke: rgb(255, 255, 255); stroke-opacity: 1; stroke-width: 1px;"/><path class="ygrid crisp" transform="translate(0,266.38)" d="M80,0h713" style="stroke: rgb(255, 255, 255); stroke-opacity: 1; stroke-width: 1px;"/><path class="ygrid crisp" transform="translate(0,198.25)" d="M80,0h713" style="stroke: rgb(255, 255, 255); stroke-opacity: 1; stroke-width: 1px;"/><path class="ygrid crisp" transform="translate(0,130.13)" d="M80,0h713" style="stroke: rgb(255, 255, 255); stroke-opacity: 1; stroke-width: 1px;"/><path class="ygrid crisp" transform="translate(0,62)" d="M80,0h713" style="stroke: rgb(255, 255, 255); stroke-opacity: 1; stroke-width: 1px;"/></g></g><g class="zerolinelayer"><path class="yzl zl crisp" transform="translate(0,402.63)" d="M80,0h713" style="stroke: rgb(255, 255, 255); stroke-opacity: 1; stroke-width: 2px;"/></g><path class="xlines-below"/><path class="ylines-below"/><g class="overlines-below"/><g class="xaxislayer-below"/><g class="yaxislayer-below"/><g class="overaxes-below"/><g class="plot" transform="translate(80, 60)" clip-path="url('#clip401dcdxyplot')"><g class="scatterlayer mlayer"><g class="trace scatter trace473ade" style="stroke-miterlimit: 2; opacity: 1;"><g class="fills"/><g class="errorbars"/><g class="lines"/><g class="points"><path class="point" transform="translate(672.64,259.69)" d="M4.22,0A4.22,4.22 0 1,1 0,-4.22A4.22,4.22 0 0,1 4.22,0Z" style="opacity: 0.7; stroke-width: 1px; fill: rgb(11, 147, 213); fill-opacity: 1; stroke: rgb(255, 255, 255); stroke-opacity: 1;"/><path class="point" transform="translate(653.59,297.61)" d="M3.36,0A3.36,3.36 0 1,1 0,-3.36A3.36,3.36 0 0,1 3.36,0Z" style="opacity: 0.7; stroke-width: 1px; fill: rgb(9, 152, 218); fill-opacity: 1; stroke: rgb(255, 255, 255); stroke-opacity: 1;"/><path class="point" transform="translate(643.71,250.27)" d="M5.63,0A5.63,5.63 0 1,1 0,-5.63A5.63,5.63 0 0,1 5.63,0Z" style="opacity: 0.7; stroke-width: 1px; fill: rgb(15, 137, 203); fill-opacity: 1; stroke: rgb(255, 255, 255); stroke-opacity: 1;"/><path class="point" transform="translate(616.46,270.31)" d="M4.88,0A4.88,4.88 0 1,1 0,-4.88A4.88,4.88 0 0,1 4.88,0Z" style="opacity: 0.7; stroke-width: 1px; fill: rgb(13, 143, 209); fill-opacity: 1; stroke: rgb(255, 255, 255); stroke-opacity: 1;"/><path class="point" transform="translate(586.73,285.29)" d="M4.23,0A4.23,4.23 0 1,1 0,-4.23A4.23,4.23 0 0,1 4.23,0Z" style="opacity: 0.7; stroke-width: 1px; fill: rgb(11, 147, 213); fill-opacity: 1; stroke: rgb(255, 255, 255); stroke-opacity: 1;"/><path class="point" transform="translate(586.72,274.22)" d="M5.41,0A5.41,5.41 0 1,1 0,-5.41A5.41,5.41 0 0,1 5.41,0Z" style="opacity: 0.7; stroke-width: 1px; fill: rgb(14, 139, 205); fill-opacity: 1; stroke: rgb(255, 255, 255); stroke-opacity: 1;"/><path class="point" transform="translate(582.35,267.81)" d="M7.68,0A7.68,7.68 0 1,1 0,-7.68A7.68,7.68 0 0,1 7.68,0Z" style="opacity: 0.7; stroke-width: 1px; fill: rgb(22, 116, 184); fill-opacity: 1; stroke: rgb(255, 255, 255); stroke-opacity: 1;"/><path class="point" transform="translate(570.13,278.94)" d="M4.53,0A4.53,4.53 0 1,1 0,-4.53A4.53,4.53 0 0,1 4.53,0Z" style="opacity: 0.7; stroke-width: 1px; fill: rgb(12, 145, 211); fill-opacity: 1; stroke: rgb(255, 255, 255); stroke-opacity: 1;"/><path class="point" transform="translate(558.15,109.87)" d="M3.5,0A3.5,3.5 0 1,1 0,-3.5A3.5,3.5 0 0,1 3.5,0Z" style="opacity: 0.7; stroke-width: 1px; fill: rgb(10, 152, 217); fill-opacity: 1; stroke: rgb(255, 255, 255); stroke-opacity: 1;"/><path class="point" transform="translate(556.26,91.81)" d="M2.31,0A2.31,2.31 0 1,1 0,-2.31A2.31,2.31 0 0,1 2.31,0Z" style="opacity: 0.7; stroke-width: 1px; fill: rgb(8, 157, 222); fill-opacity: 1; stroke: rgb(255, 255, 255); stroke-opacity: 1;"/><path class="point" transform="translate(555.91,317.71)" d="M4.07,0A4.07,4.07 0 1,1 0,-4.07A4.07,4.07 0 0,1 4.07,0Z" style="opacity: 0.7; stroke-width: 1px; fill: rgb(11, 148, 214); fill-opacity: 1; stroke: rgb(255, 255, 255); stroke-opacity: 1;"/><path class="point" transform="translate(555.42,159.26)" d="M3.07,0A3.07,3.07 0 1,1 0,-3.07A3.07,3.07 0 0,1 3.07,0Z" style="opacity: 0.7; stroke-width: 1px; fill: rgb(9, 154, 219); fill-opacity: 1; stroke: rgb(255, 255, 255); stroke-opacity: 1;"/><path class="point" transform="translate(554.34,87.44)" d="M3.48,0A3.48,3.48 0 1,1 0,-3.48A3.48,3.48 0 0,1 3.48,0Z" style="opacity: 0.7; stroke-width: 1px; fill: rgb(10, 152, 217); fill-opacity: 1; stroke: rgb(255, 255, 255); stroke-opacity: 1;"/><path class="point" transform="translate(553.52,21.19)" d="M2.85,0A2.85,2.85 0 1,1 0,-2.85A2.85,2.85 0 0,1 2.85,0Z" style="opacity: 0.7; stroke-width: 1px; fill: rgb(9, 155, 220); fill-opacity: 1; stroke: rgb(255, 255, 255); stroke-opacity: 1;"/><path class="point" transform="translate(551.61,168)" d="M3.61,0A3.61,3.61 0 1,1 0,-3.61A3.61,3.61 0 0,1 3.61,0Z" style="opacity: 0.7; stroke-width: 1px; fill: rgb(10, 151, 217); fill-opacity: 1; stroke: rgb(255, 255, 255); stroke-opacity: 1;"/><path class="point" transform="translate(550.52,40.32)" d="M4.1,0A4.1,4.1 0 1,1 0,-4.1A4.1,4.1 0 0,1 4.1,0Z" style="opacity: 0.7; stroke-width: 1px; fill: rgb(11, 148, 214); fill-opacity: 1; stroke: rgb(255, 255, 255); stroke-opacity: 1;"/><path class="point" transform="translate(549.71,92.95)" d="M4.13,0A4.13,4.13 0 1,1 0,-4.13A4.13,4.13 0 0,1 4.13,0Z" style="opacity: 0.7; stroke-width: 1px; fill: rgb(11, 148, 214); fill-opacity: 1; stroke: rgb(255, 255, 255); stroke-opacity: 1;"/><path class="point" transform="translate(548.61,164.88)" d="M5.25,0A5.25,5.25 0 1,1 0,-5.25A5.25,5.25 0 0,1 5.25,0Z" style="opacity: 0.7; stroke-width: 1px; fill: rgb(14, 140, 206); fill-opacity: 1; stroke: rgb(255, 255, 255); stroke-opacity: 1;"/><path class="point" transform="translate(548.35,335.08)" d="M5.86,0A5.86,5.86 0 1,1 0,-5.86A5.86,5.86 0 0,1 5.86,0Z" style="opacity: 0.7; stroke-width: 1px; fill: rgb(16, 135, 201); fill-opacity: 1; stroke: rgb(255, 255, 255); stroke-opacity: 1;"/><path class="point" transform="translate(547.2,308.51)" d="M6.07,0A6.07,6.07 0 1,1 0,-6.07A6.07,6.07 0 0,1 6.07,0Z" style="opacity: 0.7; stroke-width: 1px; fill: rgb(16, 133, 200); fill-opacity: 1; stroke: rgb(255, 255, 255); stroke-opacity: 1;"/><path class="point" transform="translate(542.88,263.61)" d="M10.54,0A10.54,10.54 0 1,1 0,-10.54A10.54,10.54 0 0,1 10.54,0Z" style="opacity: 0.7; stroke-width: 1px; fill: rgb(37, 76, 147); fill-opacity: 1; stroke: rgb(255, 255, 255); stroke-opacity: 1;"/><path class="point" transform="translate(539.59,299.83)" d="M6.64,0A6.64,6.64 0 1,1 0,-6.64A6.64,6.64 0 0,1 6.64,0Z" style="opacity: 0.7; stroke-width: 1px; fill: rgb(18, 127, 194); fill-opacity: 1; stroke: rgb(255, 255, 255); stroke-opacity: 1;"/><path class="point" transform="translate(537.67,312.15)" d="M11.12,0A11.12,11.12 0 1,1 0,-11.12A11.12,11.12 0 0,1 11.12,0Z" style="opacity: 0.7; stroke-width: 1px; fill: rgb(40, 66, 138); fill-opacity: 1; stroke: rgb(255, 255, 255); stroke-opacity: 1;"/><path class="point" transform="translate(516.65,329.69)" d="M2.93,0A2.93,2.93 0 1,1 0,-2.93A2.93,2.93 0 0,1 2.93,0Z" style="opacity: 0.7; stroke-width: 1px; fill: rgb(9, 154, 220); fill-opacity: 1; stroke: rgb(255, 255, 255); stroke-opacity: 1;"/><path class="point" transform="translate(516.65,288.93)" d="M6.3,0A6.3,6.3 0 1,1 0,-6.3A6.3,6.3 0 0,1 6.3,0Z" style="opacity: 0.7; stroke-width: 1px; fill: rgb(17, 130, 198); fill-opacity: 1; stroke: rgb(255, 255, 255); stroke-opacity: 1;"/><path class="point" transform="translate(508.59,277.57)" d="M3.55,0A3.55,3.55 0 1,1 0,-3.55A3.55,3.55 0 0,1 3.55,0Z" style="opacity: 0.7; stroke-width: 1px; fill: rgb(10, 151, 217); fill-opacity: 1; stroke: rgb(255, 255, 255); stroke-opacity: 1;"/><path class="point" transform="translate(496.23,265.99)" d="M9.21,0A9.21,9.21 0 1,1 0,-9.21A9.21,9.21 0 0,1 9.21,0Z" style="opacity: 0.7; stroke-width: 1px; fill: rgb(30, 96, 166); fill-opacity: 1; stroke: rgb(255, 255, 255); stroke-opacity: 1;"/><path class="point" transform="translate(478.51,287.96)" d="M9.28,0A9.28,9.28 0 1,1 0,-9.28A9.28,9.28 0 0,1 9.28,0Z" style="opacity: 0.7; stroke-width: 1px; fill: rgb(30, 95, 165); fill-opacity: 1; stroke: rgb(255, 255, 255); stroke-opacity: 1;"/><path class="point" transform="translate(470.84,328.55)" d="M5.66,0A5.66,5.66 0 1,1 0,-5.66A5.66,5.66 0 0,1 5.66,0Z" style="opacity: 0.7; stroke-width: 1px; fill: rgb(15, 136, 203); fill-opacity: 1; stroke: rgb(255, 255, 255); stroke-opacity: 1;"/><path class="point" transform="translate(469.64,300.11)" d="M3.59,0A3.59,3.59 0 1,1 0,-3.59A3.59,3.59 0 0,1 3.59,0Z" style="opacity: 0.7; stroke-width: 1px; fill: rgb(10, 151, 217); fill-opacity: 1; stroke: rgb(255, 255, 255); stroke-opacity: 1;"/><path class="point" transform="translate(468.94,258.21)" d="M8.31,0A8.31,8.31 0 1,1 0,-8.31A8.31,8.31 0 0,1 8.31,0Z" style="opacity: 0.7; stroke-width: 1px; fill: rgb(25, 108, 177); fill-opacity: 1; stroke: rgb(255, 255, 255); stroke-opacity: 1;"/><path class="point" transform="translate(465.15,294.21)" d="M3.91,0A3.91,3.91 0 1,1 0,-3.91A3.91,3.91 0 0,1 3.91,0Z" style="opacity: 0.7; stroke-width: 1px; fill: rgb(11, 149, 215); fill-opacity: 1; stroke: rgb(255, 255, 255); stroke-opacity: 1;"/><path class="point" transform="translate(449.88,282.51)" d="M5.74,0A5.74,5.74 0 1,1 0,-5.74A5.74,5.74 0 0,1 5.74,0Z" style="opacity: 0.7; stroke-width: 1px; fill: rgb(15, 136, 202); fill-opacity: 1; stroke: rgb(255, 255, 255); stroke-opacity: 1;"/><path class="point" transform="translate(444.14,249.75)" d="M6.84,0A6.84,6.84 0 1,1 0,-6.84A6.84,6.84 0 0,1 6.84,0Z" style="opacity: 0.7; stroke-width: 1px; fill: rgb(19, 125, 193); fill-opacity: 1; stroke: rgb(255, 255, 255); stroke-opacity: 1;"/><path class="point" transform="translate(440.2,301.08)" d="M3.45,0A3.45,3.45 0 1,1 0,-3.45A3.45,3.45 0 0,1 3.45,0Z" style="opacity: 0.7; stroke-width: 1px; fill: rgb(10, 152, 217); fill-opacity: 1; stroke: rgb(255, 255, 255); stroke-opacity: 1;"/><path class="point" transform="translate(428.89,292.62)" d="M4.73,0A4.73,4.73 0 1,1 0,-4.73A4.73,4.73 0 0,1 4.73,0Z" style="opacity: 0.7; stroke-width: 1px; fill: rgb(12, 144, 210); fill-opacity: 1; stroke: rgb(255, 255, 255); stroke-opacity: 1;"/><path class="point" transform="translate(425.07,290.63)" d="M8.86,0A8.86,8.86 0 1,1 0,-8.86A8.86,8.86 0 0,1 8.86,0Z" style="opacity: 0.7; stroke-width: 1px; fill: rgb(28, 101, 170); fill-opacity: 1; stroke: rgb(255, 255, 255); stroke-opacity: 1;"/><path class="point" transform="translate(423.16,324.86)" d="M11.87,0A11.87,11.87 0 1,1 0,-11.87A11.87,11.87 0 0,1 11.87,0Z" style="opacity: 0.7; stroke-width: 1px; fill: rgb(45, 53, 126); fill-opacity: 1; stroke: rgb(255, 255, 255); stroke-opacity: 1;"/><path class="point" transform="translate(411.75,284.67)" d="M8.32,0A8.32,8.32 0 1,1 0,-8.32A8.32,8.32 0 0,1 8.32,0Z" style="opacity: 0.7; stroke-width: 1px; fill: rgb(25, 108, 177); fill-opacity: 1; stroke: rgb(255, 255, 255); stroke-opacity: 1;"/><path class="point" transform="translate(407.87,275.07)" d="M3.61,0A3.61,3.61 0 1,1 0,-3.61A3.61,3.61 0 0,1 3.61,0Z" style="opacity: 0.7; stroke-width: 1px; fill: rgb(10, 151, 216); fill-opacity: 1; stroke: rgb(255, 255, 255); stroke-opacity: 1;"/><path class="point" transform="translate(404.94,303.57)" d="M3.97,0A3.97,3.97 0 1,1 0,-3.97A3.97,3.97 0 0,1 3.97,0Z" style="opacity: 0.7; stroke-width: 1px; fill: rgb(11, 149, 215); fill-opacity: 1; stroke: rgb(255, 255, 255); stroke-opacity: 1;"/><path class="point" transform="translate(401.63,322.25)" d="M3.46,0A3.46,3.46 0 1,1 0,-3.46A3.46,3.46 0 0,1 3.46,0Z" style="opacity: 0.7; stroke-width: 1px; fill: rgb(10, 152, 217); fill-opacity: 1; stroke: rgb(255, 255, 255); stroke-opacity: 1;"/><path class="point" transform="translate(387.98,234.14)" d="M6.65,0A6.65,6.65 0 1,1 0,-6.65A6.65,6.65 0 0,1 6.65,0Z" style="opacity: 0.7; stroke-width: 1px; fill: rgb(18, 127, 194); fill-opacity: 1; stroke: rgb(255, 255, 255); stroke-opacity: 1;"/><path class="point" transform="translate(384.45,307.38)" d="M4.85,0A4.85,4.85 0 1,1 0,-4.85A4.85,4.85 0 0,1 4.85,0Z" style="opacity: 0.7; stroke-width: 1px; fill: rgb(13, 143, 209); fill-opacity: 1; stroke: rgb(255, 255, 255); stroke-opacity: 1;"/><path class="point" transform="translate(378.17,298.81)" d="M5.29,0A5.29,5.29 0 1,1 0,-5.29A5.29,5.29 0 0,1 5.29,0Z" style="opacity: 0.7; stroke-width: 1px; fill: rgb(14, 139, 206); fill-opacity: 1; stroke: rgb(255, 255, 255); stroke-opacity: 1;"/><path class="point" transform="translate(368.64,314.87)" d="M2.86,0A2.86,2.86 0 1,1 0,-2.86A2.86,2.86 0 0,1 2.86,0Z" style="opacity: 0.7; stroke-width: 1px; fill: rgb(9, 155, 220); fill-opacity: 1; stroke: rgb(255, 255, 255); stroke-opacity: 1;"/><path class="point" transform="translate(367.03,289.15)" d="M7.7,0A7.7,7.7 0 1,1 0,-7.7A7.7,7.7 0 0,1 7.7,0Z" style="opacity: 0.7; stroke-width: 1px; fill: rgb(23, 116, 184); fill-opacity: 1; stroke: rgb(255, 255, 255); stroke-opacity: 1;"/><path class="point" transform="translate(357.98,286.83)" d="M7.44,0A7.44,7.44 0 1,1 0,-7.44A7.44,7.44 0 0,1 7.44,0Z" style="opacity: 0.7; stroke-width: 1px; fill: rgb(21, 119, 187); fill-opacity: 1; stroke: rgb(255, 255, 255); stroke-opacity: 1;"/><path class="point" transform="translate(350.13,251.91)" d="M3.29,0A3.29,3.29 0 1,1 0,-3.29A3.29,3.29 0 0,1 3.29,0Z" style="opacity: 0.7; stroke-width: 1px; fill: rgb(9, 153, 218); fill-opacity: 1; stroke: rgb(255, 255, 255); stroke-opacity: 1;"/><path class="point" transform="translate(342.72,258.33)" d="M4.15,0A4.15,4.15 0 1,1 0,-4.15A4.15,4.15 0 0,1 4.15,0Z" style="opacity: 0.7; stroke-width: 1px; fill: rgb(11, 148, 214); fill-opacity: 1; stroke: rgb(255, 255, 255); stroke-opacity: 1;"/><path class="point" transform="translate(339.97,322.59)" d="M4.2,0A4.2,4.2 0 1,1 0,-4.2A4.2,4.2 0 0,1 4.2,0Z" style="opacity: 0.7; stroke-width: 1px; fill: rgb(11, 147, 213); fill-opacity: 1; stroke: rgb(255, 255, 255); stroke-opacity: 1;"/><path class="point" transform="translate(336.74,277.69)" d="M7.57,0A7.57,7.57 0 1,1 0,-7.57A7.57,7.57 0 0,1 7.57,0Z" style="opacity: 0.7; stroke-width: 1px; fill: rgb(22, 117, 185); fill-opacity: 1; stroke: rgb(255, 255, 255); stroke-opacity: 1;"/><path class="point" transform="translate(335.2,276.72)" d="M5.58,0A5.58,5.58 0 1,1 0,-5.58A5.58,5.58 0 0,1 5.58,0Z" style="opacity: 0.7; stroke-width: 1px; fill: rgb(15, 137, 204); fill-opacity: 1; stroke: rgb(255, 255, 255); stroke-opacity: 1;"/><path class="point" transform="translate(327.23,271.27)" d="M11.91,0A11.91,11.91 0 1,1 0,-11.91A11.91,11.91 0 0,1 11.91,0Z" style="opacity: 0.7; stroke-width: 1px; fill: rgb(45, 52, 125); fill-opacity: 1; stroke: rgb(255, 255, 255); stroke-opacity: 1;"/><path class="point" transform="translate(317.93,275.81)" d="M4.52,0A4.52,4.52 0 1,1 0,-4.52A4.52,4.52 0 0,1 4.52,0Z" style="opacity: 0.7; stroke-width: 1px; fill: rgb(12, 145, 211); fill-opacity: 1; stroke: rgb(255, 255, 255); stroke-opacity: 1;"/><path class="point" transform="translate(315.47,328.72)" d="M1.86,0A1.86,1.86 0 1,1 0,-1.86A1.86,1.86 0 0,1 1.86,0Z" style="opacity: 0.7; stroke-width: 1px; fill: rgb(7, 158, 223); fill-opacity: 1; stroke: rgb(255, 255, 255); stroke-opacity: 1;"/><path class="point" transform="translate(313.83,304.31)" d="M14.14,0A14.14,14.14 0 1,1 0,-14.14A14.14,14.14 0 0,1 14.14,0Z" style="opacity: 0.7; stroke-width: 1px; fill: rgb(61, 8, 84); fill-opacity: 1; stroke: rgb(255, 255, 255); stroke-opacity: 1;"/><path class="point" transform="translate(304.27,307.55)" d="M5.01,0A5.01,5.01 0 1,1 0,-5.01A5.01,5.01 0 0,1 5.01,0Z" style="opacity: 0.7; stroke-width: 1px; fill: rgb(13, 142, 208); fill-opacity: 1; stroke: rgb(255, 255, 255); stroke-opacity: 1;"/><path class="point" transform="translate(304.27,295.29)" d="M5.9,0A5.9,5.9 0 1,1 0,-5.9A5.9,5.9 0 0,1 5.9,0Z" style="opacity: 0.7; stroke-width: 1px; fill: rgb(16, 134, 201); fill-opacity: 1; stroke: rgb(255, 255, 255); stroke-opacity: 1;"/><path class="point" transform="translate(299.4,271.04)" d="M7.95,0A7.95,7.95 0 1,1 0,-7.95A7.95,7.95 0 0,1 7.95,0Z" style="opacity: 0.7; stroke-width: 1px; fill: rgb(24, 113, 181); fill-opacity: 1; stroke: rgb(255, 255, 255); stroke-opacity: 1;"/><path class="point" transform="translate(296.38,277.18)" d="M13.47,0A13.47,13.47 0 1,1 0,-13.47A13.47,13.47 0 0,1 13.47,0Z" style="opacity: 0.7; stroke-width: 1px; fill: rgb(56, 22, 97); fill-opacity: 1; stroke: rgb(255, 255, 255); stroke-opacity: 1;"/><path class="point" transform="translate(290.37,266.45)" d="M5.27,0A5.27,5.27 0 1,1 0,-5.27A5.27,5.27 0 0,1 5.27,0Z" style="opacity: 0.7; stroke-width: 1px; fill: rgb(14, 140, 206); fill-opacity: 1; stroke: rgb(255, 255, 255); stroke-opacity: 1;"/><path class="point" transform="translate(281.47,250.27)" d="M6.38,0A6.38,6.38 0 1,1 0,-6.38A6.38,6.38 0 0,1 6.38,0Z" style="opacity: 0.7; stroke-width: 1px; fill: rgb(17, 130, 197); fill-opacity: 1; stroke: rgb(255, 255, 255); stroke-opacity: 1;"/><path class="point" transform="translate(275.66,280.3)" d="M4.98,0A4.98,4.98 0 1,1 0,-4.98A4.98,4.98 0 0,1 4.98,0Z" style="opacity: 0.7; stroke-width: 1px; fill: rgb(13, 142, 208); fill-opacity: 1; stroke: rgb(255, 255, 255); stroke-opacity: 1;"/><path class="point" transform="translate(272.11,325.26)" d="M7.17,0A7.17,7.17 0 1,1 0,-7.17A7.17,7.17 0 0,1 7.17,0Z" style="opacity: 0.7; stroke-width: 1px; fill: rgb(20, 122, 189); fill-opacity: 1; stroke: rgb(255, 255, 255); stroke-opacity: 1;"/><path class="point" transform="translate(271.86,252.88)" d="M13.36,0A13.36,13.36 0 1,1 0,-13.36A13.36,13.36 0 0,1 13.36,0Z" style="opacity: 0.7; stroke-width: 1px; fill: rgb(55, 24, 99); fill-opacity: 1; stroke: rgb(255, 255, 255); stroke-opacity: 1;"/><path class="point" transform="translate(260.42,284.84)" d="M6.49,0A6.49,6.49 0 1,1 0,-6.49A6.49,6.49 0 0,1 6.49,0Z" style="opacity: 0.7; stroke-width: 1px; fill: rgb(18, 129, 196); fill-opacity: 1; stroke: rgb(255, 255, 255); stroke-opacity: 1;"/><path class="point" transform="translate(258.49,238.06)" d="M5.18,0A5.18,5.18 0 1,1 0,-5.18A5.18,5.18 0 0,1 5.18,0Z" style="opacity: 0.7; stroke-width: 1px; fill: rgb(14, 140, 207); fill-opacity: 1; stroke: rgb(255, 255, 255); stroke-opacity: 1;"/><path class="point" transform="translate(255.2,266.56)" d="M6.93,0A6.93,6.93 0 1,1 0,-6.93A6.93,6.93 0 0,1 6.93,0Z" style="opacity: 0.7; stroke-width: 1px; fill: rgb(19, 124, 192); fill-opacity: 1; stroke: rgb(255, 255, 255); stroke-opacity: 1;"/><path class="point" transform="translate(255.2,323.39)" d="M2.77,0A2.77,2.77 0 1,1 0,-2.77A2.77,2.77 0 0,1 2.77,0Z" style="opacity: 0.7; stroke-width: 1px; fill: rgb(8, 155, 220); fill-opacity: 1; stroke: rgb(255, 255, 255); stroke-opacity: 1;"/><path class="point" transform="translate(254.93,299.54)" d="M3.82,0A3.82,3.82 0 1,1 0,-3.82A3.82,3.82 0 0,1 3.82,0Z" style="opacity: 0.7; stroke-width: 1px; fill: rgb(10, 150, 215); fill-opacity: 1; stroke: rgb(255, 255, 255); stroke-opacity: 1;"/><path class="point" transform="translate(254.67,271.9)" d="M4.37,0A4.37,4.37 0 1,1 0,-4.37A4.37,4.37 0 0,1 4.37,0Z" style="opacity: 0.7; stroke-width: 1px; fill: rgb(12, 146, 212); fill-opacity: 1; stroke: rgb(255, 255, 255); stroke-opacity: 1;"/><path class="point" transform="translate(254.39,279.79)" d="M4.37,0A4.37,4.37 0 1,1 0,-4.37A4.37,4.37 0 0,1 4.37,0Z" style="opacity: 0.7; stroke-width: 1px; fill: rgb(12, 146, 212); fill-opacity: 1; stroke: rgb(255, 255, 255); stroke-opacity: 1;"/><path class="point" transform="translate(254.13,289.61)" d="M4.23,0A4.23,4.23 0 1,1 0,-4.23A4.23,4.23 0 0,1 4.23,0Z" style="opacity: 0.7; stroke-width: 1px; fill: rgb(11, 147, 213); fill-opacity: 1; stroke: rgb(255, 255, 255); stroke-opacity: 1;"/><path class="point" transform="translate(253.85,295.51)" d="M6.09,0A6.09,6.09 0 1,1 0,-6.09A6.09,6.09 0 0,1 6.09,0Z" style="opacity: 0.7; stroke-width: 1px; fill: rgb(16, 133, 199); fill-opacity: 1; stroke: rgb(255, 255, 255); stroke-opacity: 1;"/><path class="point" transform="translate(253.58,285.18)" d="M4.32,0A4.32,4.32 0 1,1 0,-4.32A4.32,4.32 0 0,1 4.32,0Z" style="opacity: 0.7; stroke-width: 1px; fill: rgb(11, 147, 213); fill-opacity: 1; stroke: rgb(255, 255, 255); stroke-opacity: 1;"/><path class="point" transform="translate(253.31,278.88)" d="M5.6,0A5.6,5.6 0 1,1 0,-5.6A5.6,5.6 0 0,1 5.6,0Z" style="opacity: 0.7; stroke-width: 1px; fill: rgb(15, 137, 204); fill-opacity: 1; stroke: rgb(255, 255, 255); stroke-opacity: 1;"/><path class="point" transform="translate(253.05,279.16)" d="M6.32,0A6.32,6.32 0 1,1 0,-6.32A6.32,6.32 0 0,1 6.32,0Z" style="opacity: 0.7; stroke-width: 1px; fill: rgb(17, 130, 197); fill-opacity: 1; stroke: rgb(255, 255, 255); stroke-opacity: 1;"/><path class="point" transform="translate(252.77,284.44)" d="M10.05,0A10.05,10.05 0 1,1 0,-10.05A10.05,10.05 0 0,1 10.05,0Z" style="opacity: 0.7; stroke-width: 1px; fill: rgb(34, 84, 154); fill-opacity: 1; stroke: rgb(255, 255, 255); stroke-opacity: 1;"/><path class="point" transform="translate(237.57,259.29)" d="M5.42,0A5.42,5.42 0 1,1 0,-5.42A5.42,5.42 0 0,1 5.42,0Z" style="opacity: 0.7; stroke-width: 1px; fill: rgb(14, 138, 205); fill-opacity: 1; stroke: rgb(255, 255, 255); stroke-opacity: 1;"/><path class="point" transform="translate(227.98,269.06)" d="M7.11,0A7.11,7.11 0 1,1 0,-7.11A7.11,7.11 0 0,1 7.11,0Z" style="opacity: 0.7; stroke-width: 1px; fill: rgb(20, 122, 190); fill-opacity: 1; stroke: rgb(255, 255, 255); stroke-opacity: 1;"/><path class="point" transform="translate(222.26,314.53)" d="M3.88,0A3.88,3.88 0 1,1 0,-3.88A3.88,3.88 0 0,1 3.88,0Z" style="opacity: 0.7; stroke-width: 1px; fill: rgb(10, 149, 215); fill-opacity: 1; stroke: rgb(255, 255, 255); stroke-opacity: 1;"/><path class="point" transform="translate(214.62,267.07)" d="M6.98,0A6.98,6.98 0 1,1 0,-6.98A6.98,6.98 0 0,1 6.98,0Z" style="opacity: 0.7; stroke-width: 1px; fill: rgb(20, 124, 191); fill-opacity: 1; stroke: rgb(255, 255, 255); stroke-opacity: 1;"/><path class="point" transform="translate(210.8,296.08)" d="M2.3,0A2.3,2.3 0 1,1 0,-2.3A2.3,2.3 0 0,1 2.3,0Z" style="opacity: 0.7; stroke-width: 1px; fill: rgb(8, 157, 222); fill-opacity: 1; stroke: rgb(255, 255, 255); stroke-opacity: 1;"/><path class="point" transform="translate(210.8,337.41)" d="M1.56,0A1.56,1.56 0 1,1 0,-1.56A1.56,1.56 0 0,1 1.56,0Z" style="opacity: 0.7; stroke-width: 1px; fill: rgb(7, 159, 224); fill-opacity: 1; stroke: rgb(255, 255, 255); stroke-opacity: 1;"/><path class="point" transform="translate(210.8,295)" d="M3.12,0A3.12,3.12 0 1,1 0,-3.12A3.12,3.12 0 0,1 3.12,0Z" style="opacity: 0.7; stroke-width: 1px; fill: rgb(9, 153, 219); fill-opacity: 1; stroke: rgb(255, 255, 255); stroke-opacity: 1;"/><path class="point" transform="translate(205.13,280.41)" d="M6.76,0A6.76,6.76 0 1,1 0,-6.76A6.76,6.76 0 0,1 6.76,0Z" style="opacity: 0.7; stroke-width: 1px; fill: rgb(19, 126, 193); fill-opacity: 1; stroke: rgb(255, 255, 255); stroke-opacity: 1;"/><path class="point" transform="translate(193.92,285.52)" d="M4.79,0A4.79,4.79 0 1,1 0,-4.79A4.79,4.79 0 0,1 4.79,0Z" style="opacity: 0.7; stroke-width: 1px; fill: rgb(13, 143, 209); fill-opacity: 1; stroke: rgb(255, 255, 255); stroke-opacity: 1;"/><path class="point" transform="translate(191.46,283.82)" d="M6.22,0A6.22,6.22 0 1,1 0,-6.22A6.22,6.22 0 0,1 6.22,0Z" style="opacity: 0.7; stroke-width: 1px; fill: rgb(17, 131, 198); fill-opacity: 1; stroke: rgb(255, 255, 255); stroke-opacity: 1;"/><path class="point" transform="translate(190.36,298.86)" d="M3.84,0A3.84,3.84 0 1,1 0,-3.84A3.84,3.84 0 0,1 3.84,0Z" style="opacity: 0.7; stroke-width: 1px; fill: rgb(10, 150, 215); fill-opacity: 1; stroke: rgb(255, 255, 255); stroke-opacity: 1;"/><path class="point" transform="translate(187.47,297.78)" d="M3.03,0A3.03,3.03 0 1,1 0,-3.03A3.03,3.03 0 0,1 3.03,0Z" style="opacity: 0.7; stroke-width: 1px; fill: rgb(9, 154, 219); fill-opacity: 1; stroke: rgb(255, 255, 255); stroke-opacity: 1;"/><path class="point" transform="translate(187.47,312.32)" d="M3.55,0A3.55,3.55 0 1,1 0,-3.55A3.55,3.55 0 0,1 3.55,0Z" style="opacity: 0.7; stroke-width: 1px; fill: rgb(10, 151, 217); fill-opacity: 1; stroke: rgb(255, 255, 255); stroke-opacity: 1;"/><path class="point" transform="translate(185.47,294.26)" d="M4.4,0A4.4,4.4 0 1,1 0,-4.4A4.4,4.4 0 0,1 4.4,0Z" style="opacity: 0.7; stroke-width: 1px; fill: rgb(12, 146, 212); fill-opacity: 1; stroke: rgb(255, 255, 255); stroke-opacity: 1;"/><path class="point" transform="translate(183.32,327.48)" d="M3.39,0A3.39,3.39 0 1,1 0,-3.39A3.39,3.39 0 0,1 3.39,0Z" style="opacity: 0.7; stroke-width: 1px; fill: rgb(9, 152, 218); fill-opacity: 1; stroke: rgb(255, 255, 255); stroke-opacity: 1;"/><path class="point" transform="translate(183.05,301.25)" d="M4.89,0A4.89,4.89 0 1,1 0,-4.89A4.89,4.89 0 0,1 4.89,0Z" style="opacity: 0.7; stroke-width: 1px; fill: rgb(13, 143, 209); fill-opacity: 1; stroke: rgb(255, 255, 255); stroke-opacity: 1;"/><path class="point" transform="translate(181.69,308.4)" d="M5.98,0A5.98,5.98 0 1,1 0,-5.98A5.98,5.98 0 0,1 5.98,0Z" style="opacity: 0.7; stroke-width: 1px; fill: rgb(16, 134, 200); fill-opacity: 1; stroke: rgb(255, 255, 255); stroke-opacity: 1;"/><path class="point" transform="translate(181.41,326.4)" d="M3.67,0A3.67,3.67 0 1,1 0,-3.67A3.67,3.67 0 0,1 3.67,0Z" style="opacity: 0.7; stroke-width: 1px; fill: rgb(10, 151, 216); fill-opacity: 1; stroke: rgb(255, 255, 255); stroke-opacity: 1;"/><path class="point" transform="translate(181.14,308.34)" d="M5.19,0A5.19,5.19 0 1,1 0,-5.19A5.19,5.19 0 0,1 5.19,0Z" style="opacity: 0.7; stroke-width: 1px; fill: rgb(14, 140, 207); fill-opacity: 1; stroke: rgb(255, 255, 255); stroke-opacity: 1;"/><path class="point" transform="translate(180.86,305.22)" d="M6.57,0A6.57,6.57 0 1,1 0,-6.57A6.57,6.57 0 0,1 6.57,0Z" style="opacity: 0.7; stroke-width: 1px; fill: rgb(18, 128, 195); fill-opacity: 1; stroke: rgb(255, 255, 255); stroke-opacity: 1;"/><path class="point" transform="translate(180.61,308.63)" d="M6.32,0A6.32,6.32 0 1,1 0,-6.32A6.32,6.32 0 0,1 6.32,0Z" style="opacity: 0.7; stroke-width: 1px; fill: rgb(17, 130, 197); fill-opacity: 1; stroke: rgb(255, 255, 255); stroke-opacity: 1;"/><path class="point" transform="translate(180.34,309.02)" d="M8.1,0A8.1,8.1 0 1,1 0,-8.1A8.1,8.1 0 0,1 8.1,0Z" style="opacity: 0.7; stroke-width: 1px; fill: rgb(24, 111, 179); fill-opacity: 1; stroke: rgb(255, 255, 255); stroke-opacity: 1;"/><path class="point" transform="translate(180.08,325.09)" d="M4.61,0A4.61,4.61 0 1,1 0,-4.61A4.61,4.61 0 0,1 4.61,0Z" style="opacity: 0.7; stroke-width: 1px; fill: rgb(12, 145, 211); fill-opacity: 1; stroke: rgb(255, 255, 255); stroke-opacity: 1;"/><path class="point" transform="translate(169.23,316.4)" d="M4.14,0A4.14,4.14 0 1,1 0,-4.14A4.14,4.14 0 0,1 4.14,0Z" style="opacity: 0.7; stroke-width: 1px; fill: rgb(11, 148, 214); fill-opacity: 1; stroke: rgb(255, 255, 255); stroke-opacity: 1;"/><path class="point" transform="translate(145.95,329.18)" d="M1.79,0A1.79,1.79 0 1,1 0,-1.79A1.79,1.79 0 0,1 1.79,0Z" style="opacity: 0.7; stroke-width: 1px; fill: rgb(7, 158, 223); fill-opacity: 1; stroke: rgb(255, 255, 255); stroke-opacity: 1;"/><path class="point" transform="translate(145.95,288.02)" d="M3.99,0A3.99,3.99 0 1,1 0,-3.99A3.99,3.99 0 0,1 3.99,0Z" style="opacity: 0.7; stroke-width: 1px; fill: rgb(11, 149, 214); fill-opacity: 1; stroke: rgb(255, 255, 255); stroke-opacity: 1;"/><path class="point" transform="translate(125.29,333.89)" d="M5.07,0A5.07,5.07 0 1,1 0,-5.07A5.07,5.07 0 0,1 5.07,0Z" style="opacity: 0.7; stroke-width: 1px; fill: rgb(13, 141, 208); fill-opacity: 1; stroke: rgb(255, 255, 255); stroke-opacity: 1;"/><path class="point" transform="translate(96.67,297.61)" d="M4.72,0A4.72,4.72 0 1,1 0,-4.72A4.72,4.72 0 0,1 4.72,0Z" style="opacity: 0.7; stroke-width: 1px; fill: rgb(12, 144, 210); fill-opacity: 1; stroke: rgb(255, 255, 255); stroke-opacity: 1;"/><path class="point" transform="translate(92.53,333.89)" d="M2.79,0A2.79,2.79 0 1,1 0,-2.79A2.79,2.79 0 0,1 2.79,0Z" style="opacity: 0.7; stroke-width: 1px; fill: rgb(8, 155, 220); fill-opacity: 1; stroke: rgb(255, 255, 255); stroke-opacity: 1;"/><path class="point" transform="translate(82.76,291.08)" d="M6.72,0A6.72,6.72 0 1,1 0,-6.72A6.72,6.72 0 0,1 6.72,0Z" style="opacity: 0.7; stroke-width: 1px; fill: rgb(19, 126, 194); fill-opacity: 1; stroke: rgb(255, 255, 255); stroke-opacity: 1;"/><path class="point" transform="translate(68.09,317.26)" d="M2.48,0A2.48,2.48 0 1,1 0,-2.48A2.48,2.48 0 0,1 2.48,0Z" style="opacity: 0.7; stroke-width: 1px; fill: rgb(8, 156, 221); fill-opacity: 1; stroke: rgb(255, 255, 255); stroke-opacity: 1;"/><path class="point" transform="translate(60.45,312.37)" d="M3.26,0A3.26,3.26 0 1,1 0,-3.26A3.26,3.26 0 0,1 3.26,0Z" style="opacity: 0.7; stroke-width: 1px; fill: rgb(9, 153, 218); fill-opacity: 1; stroke: rgb(255, 255, 255); stroke-opacity: 1;"/><path class="point" transform="translate(48.76,336.45)" d="M2.67,0A2.67,2.67 0 1,1 0,-2.67A2.67,2.67 0 0,1 2.67,0Z" style="opacity: 0.7; stroke-width: 1px; fill: rgb(8, 155, 221); fill-opacity: 1; stroke: rgb(255, 255, 255); stroke-opacity: 1;"/><path class="point" transform="translate(38.65,339)" d="M1.67,0A1.67,1.67 0 1,1 0,-1.67A1.67,1.67 0 0,1 1.67,0Z" style="opacity: 0.7; stroke-width: 1px; fill: rgb(7, 159, 224); fill-opacity: 1; stroke: rgb(255, 255, 255); stroke-opacity: 1;"/></g><g class="text"/></g></g></g><g class="overplot"/><path class="xlines-above crisp" d="M0,0" style="fill: none;"/><path class="ylines-above crisp" d="M0,0" style="fill: none;"/><g class="overlines-above"/><g class="xaxislayer-above"><g class="xtick"><text text-anchor="middle" x="0" y="433" transform="translate(101.4,0)" style="font-family: 'Open Sans', verdana, arial, sans-serif; font-size: 12px; fill: rgb(42, 63, 95); fill-opacity: 1; white-space: pre;">2015</text></g><g class="xtick"><text text-anchor="middle" x="0" y="433" transform="translate(200.91,0)" style="font-family: 'Open Sans', verdana, arial, sans-serif; font-size: 12px; fill: rgb(42, 63, 95); fill-opacity: 1; white-space: pre;">2016</text></g><g class="xtick"><text text-anchor="middle" x="0" y="433" transform="translate(300.69,0)" style="font-family: 'Open Sans', verdana, arial, sans-serif; font-size: 12px; fill: rgb(42, 63, 95); fill-opacity: 1; white-space: pre;">2017</text></g><g class="xtick"><text text-anchor="middle" x="0" y="433" transform="translate(400.2,0)" style="font-family: 'Open Sans', verdana, arial, sans-serif; font-size: 12px; fill: rgb(42, 63, 95); fill-opacity: 1; white-space: pre;">2018</text></g><g class="xtick"><text text-anchor="middle" x="0" y="433" transform="translate(499.7,0)" style="font-family: 'Open Sans', verdana, arial, sans-serif; font-size: 12px; fill: rgb(42, 63, 95); fill-opacity: 1; white-space: pre;">2019</text></g><g class="xtick"><text text-anchor="middle" x="0" y="433" transform="translate(599.21,0)" style="font-family: 'Open Sans', verdana, arial, sans-serif; font-size: 12px; fill: rgb(42, 63, 95); fill-opacity: 1; white-space: pre;">2020</text></g><g class="xtick"><text text-anchor="middle" x="0" y="433" transform="translate(698.99,0)" style="font-family: 'Open Sans', verdana, arial, sans-serif; font-size: 12px; fill: rgb(42, 63, 95); fill-opacity: 1; white-space: pre;">2021</text></g></g><g class="yaxislayer-above"><g class="ytick"><text text-anchor="end" x="79" y="4.199999999999999" transform="translate(0,402.63)" style="font-family: 'Open Sans', verdana, arial, sans-serif; font-size: 12px; fill: rgb(42, 63, 95); fill-opacity: 1; white-space: pre;">0</text></g><g class="ytick"><text text-anchor="end" x="79" y="4.199999999999999" transform="translate(0,334.51)" style="font-family: 'Open Sans', verdana, arial, sans-serif; font-size: 12px; fill: rgb(42, 63, 95); fill-opacity: 1; white-space: pre;">20</text></g><g class="ytick"><text text-anchor="end" x="79" y="4.199999999999999" transform="translate(0,266.38)" style="font-family: 'Open Sans', verdana, arial, sans-serif; font-size: 12px; fill: rgb(42, 63, 95); fill-opacity: 1; white-space: pre;">40</text></g><g class="ytick"><text text-anchor="end" x="79" y="4.199999999999999" transform="translate(0,198.25)" style="font-family: 'Open Sans', verdana, arial, sans-serif; font-size: 12px; fill: rgb(42, 63, 95); fill-opacity: 1; white-space: pre;">60</text></g><g class="ytick"><text text-anchor="end" x="79" y="4.199999999999999" transform="translate(0,130.13)" style="font-family: 'Open Sans', verdana, arial, sans-serif; font-size: 12px; fill: rgb(42, 63, 95); fill-opacity: 1; white-space: pre;">80</text></g><g class="ytick"><text text-anchor="end" x="79" y="4.199999999999999" transform="translate(0,62)" style="font-family: 'Open Sans', verdana, arial, sans-serif; font-size: 12px; fill: rgb(42, 63, 95); fill-opacity: 1; white-space: pre;">100</text></g></g><g class="overaxes-above"/></g></g><g class="polarlayer"/><g class="ternarylayer"/><g class="geolayer"/><g class="funnelarealayer"/><g class="pielayer"/><g class="treemaplayer"/><g class="sunburstlayer"/><g class="glimages"/><defs id="topdefs-401dcd"><g class="clips"/></defs><g class="layer-above"><g class="imagelayer"/><g class="shapelayer"/></g><g class="infolayer"><g class="cbcoloraxis colorbar" transform="translate(80,60)"><rect class="cbbg" x="727" y="0" width="80.90625" height="360" style="fill: rgb(0, 0, 0); fill-opacity: 0; stroke: rgb(68, 68, 68); stroke-opacity: 1; stroke-width: 0;"/><g class="cbfills" transform="translate(0,30)"><rect class="cbfill" x="737" width="30" y="0" height="320" style="fill: url('#g401dcd-cbcoloraxis');"/></g><g class="cblines" transform="translate(0,30)"/><g class="cbaxis crisp" transform="translate(0,-60)"><g class="ycbcoloraxistick"><text text-anchor="start" x="769.9" y="4.199999999999999" transform="translate(0,353.71)" style="font-family: 'Open Sans', verdana, arial, sans-serif; font-size: 12px; fill: rgb(42, 63, 95); fill-opacity: 1; white-space: pre;">50k</text></g><g class="ycbcoloraxistick"><text text-anchor="start" x="769.9" y="4.199999999999999" transform="translate(0,293.46000000000004)" style="font-family: 'Open Sans', verdana, arial, sans-serif; font-size: 12px; fill: rgb(42, 63, 95); fill-opacity: 1; white-space: pre;">100k</text></g><g class="ycbcoloraxistick"><text text-anchor="start" x="769.9" y="4.199999999999999" transform="translate(0,233.22000000000003)" style="font-family: 'Open Sans', verdana, arial, sans-serif; font-size: 12px; fill: rgb(42, 63, 95); fill-opacity: 1; white-space: pre;">150k</text></g><g class="ycbcoloraxistick"><text text-anchor="start" x="769.9" y="4.199999999999999" transform="translate(0,172.97000000000003)" style="font-family: 'Open Sans', verdana, arial, sans-serif; font-size: 12px; fill: rgb(42, 63, 95); fill-opacity: 1; white-space: pre;">200k</text></g><g class="ycbcoloraxistick"><text text-anchor="start" x="769.9" y="4.199999999999999" transform="translate(0,112.73000000000002)" style="font-family: 'Open Sans', verdana, arial, sans-serif; font-size: 12px; fill: rgb(42, 63, 95); fill-opacity: 1; white-space: pre;">250k</text></g></g><g class="cbtitleunshift" transform="translate(-80,-60)"><g class="cbtitle" transform="translate(0,0)"><text class="ycbcoloraxistitle" x="817.2600000000001" y="82" text-anchor="start" style="font-family: 'Open Sans', verdana, arial, sans-serif; font-size: 12px; fill: rgb(42, 63, 95); opacity: 1; font-weight: normal; white-space: pre;">likes</text></g></g><rect class="cboutline" x="737" y="30" width="30" height="320" style="stroke: rgb(68, 68, 68); stroke-opacity: 1; fill: none; stroke-width: 0;"/></g><g class="g-gtitle"/><g class="g-xtitle"><text class="xtitle" x="436.5" y="460.8" text-anchor="middle" style="font-family: 'Open Sans', verdana, arial, sans-serif; font-size: 14px; fill: rgb(42, 63, 95); opacity: 1; font-weight: normal; white-space: pre;">publication date</text></g><g class="g-ytitle"><text class="ytitle" transform="rotate(-90,31.309375000000003,240)" x="31.309375000000003" y="240" text-anchor="middle" style="font-family: 'Open Sans', verdana, arial, sans-serif; font-size: 14px; fill: rgb(42, 63, 95); opacity: 1; font-weight: normal; white-space: pre;">duration</text></g></g></svg>